<?xml version="1.0" encoding="utf-8" standalone="no"?>
<!DOCTYPE svg PUBLIC "-//W3C//DTD SVG 1.1//EN"
        "http://www.w3.org/Graphics/SVG/1.1/DTD/svg11.dtd">
<svg xmlns:xlink="http://www.w3.org/1999/xlink" width="1080pt" height="720pt" viewBox="0 0 1080 720"
     xmlns="http://www.w3.org/2000/svg" version="1.1">
    <metadata>
        <rdf:RDF xmlns:dc="http://purl.org/dc/elements/1.1/" xmlns:cc="http://creativecommons.org/ns#"
                 xmlns:rdf="http://www.w3.org/1999/02/22-rdf-syntax-ns#">
            <cc:Work>
                <dc:type rdf:resource="http://purl.org/dc/dcmitype/StillImage"/>
                <dc:date>2022-05-30T23:08:44.841668</dc:date>
                <dc:format>image/svg+xml</dc:format>
                <dc:creator>
                    <cc:Agent>
                        <dc:title>Matplotlib v3.5.1, https://matplotlib.org/</dc:title>
                    </cc:Agent>
                </dc:creator>
            </cc:Work>
        </rdf:RDF>
    </metadata>
    <defs>
        <style type="text/css">*{stroke-linejoin: round; stroke-linecap: butt}</style>
    </defs>
    <g id="figure_1">
        <g id="patch_1">
            <path d="M 0 720
L 1080 720 
L 1080 0 
L 0 0 
z
" style="fill: #ffffff"/>
        </g>
        <g id="axes_1">
            <g id="patch_2">
                <path d="M 135 640.8
L 972 640.8 
L 972 86.4 
L 135 86.4 
z
" style="fill: #ffffff"/>
            </g>
            <g id="patch_3">
                <path d="M 173.045455 640.8
L 219.767943 640.8 
L 219.767943 515.321294 
L 173.045455 515.321294 
z
" clip-path="url(#p2aede3cfa3)" style="fill: #00bfbf"/>
            </g>
            <g id="patch_4">
                <path d="M 306.538278 640.8
L 353.260766 640.8 
L 353.260766 516.680112 
L 306.538278 516.680112 
z
" clip-path="url(#p2aede3cfa3)" style="fill: #00bfbf"/>
            </g>
            <g id="patch_5">
                <path d="M 440.0311 640.8
L 486.753589 640.8 
L 486.753589 318.429993 
L 440.0311 318.429993 
z
" clip-path="url(#p2aede3cfa3)" style="fill: #00bfbf"/>
            </g>
            <g id="patch_6">
                <path d="M 573.523923 640.8
L 620.246411 640.8 
L 620.246411 112.8 
L 573.523923 112.8 
z
" clip-path="url(#p2aede3cfa3)" style="fill: #00bfbf"/>
            </g>
            <g id="patch_7">
                <path d="M 707.016746 640.8
L 753.739234 640.8 
L 753.739234 445.468367 
L 707.016746 445.468367 
z
" clip-path="url(#p2aede3cfa3)" style="fill: #00bfbf"/>
            </g>
            <g id="patch_8">
                <path d="M 840.509569 640.8
L 887.232057 640.8 
L 887.232057 385.503458 
L 840.509569 385.503458 
z
" clip-path="url(#p2aede3cfa3)" style="fill: #00bfbf"/>
            </g>
            <g id="patch_9">
                <path d="M 219.767943 640.8
L 266.490431 640.8 
L 266.490431 515.53588 
L 219.767943 515.53588 
z
" clip-path="url(#p2aede3cfa3)" style="fill: #0000ff"/>
            </g>
            <g id="patch_10">
                <path d="M 353.260766 640.8
L 399.983254 640.8 
L 399.983254 516.903823 
L 353.260766 516.903823 
z
" clip-path="url(#p2aede3cfa3)" style="fill: #0000ff"/>
            </g>
            <g id="patch_11">
                <path d="M 486.753589 640.8
L 533.476077 640.8 
L 533.476077 402.750869 
L 486.753589 402.750869 
z
" clip-path="url(#p2aede3cfa3)" style="fill: #0000ff"/>
            </g>
            <g id="patch_12">
                <path d="M 620.246411 640.8
L 666.9689 640.8 
L 666.9689 435.392965 
L 620.246411 435.392965 
z
" clip-path="url(#p2aede3cfa3)" style="fill: #0000ff"/>
            </g>
            <g id="patch_13">
                <path d="M 753.739234 640.8
L 800.461722 640.8 
L 800.461722 448.263833 
L 753.739234 448.263833 
z
" clip-path="url(#p2aede3cfa3)" style="fill: #0000ff"/>
            </g>
            <g id="patch_14">
                <path d="M 887.232057 640.8
L 933.954545 640.8 
L 933.954545 427.792369 
L 887.232057 427.792369 
z
" clip-path="url(#p2aede3cfa3)" style="fill: #0000ff"/>
            </g>
            <g id="matplotlib.axis_1">
                <g id="xtick_1">
                    <g id="line2d_1">
                        <defs>
                            <path id="m17f2895000" d="M 0 0
L 0 3.5 
" style="stroke: #000000; stroke-width: 0.8"/>
                        </defs>
                        <g>
                            <use xlink:href="#m17f2895000" x="219.767943" y="640.8"
                                 style="stroke: #000000; stroke-width: 0.8"/>
                        </g>
                    </g>
                    <g id="text_1">
                        <!-- ordinary regression -->
                        <g transform="translate(172.267943 654.675)scale(0.1 -0.1)">
                            <defs>
                                <path id="SimHei-6f" d="M 2925 1525
Q 2925 875 2525 475 
Q 2125 75 1575 75 
Q 1025 75 625 475 
Q 225 875 225 1525 
Q 225 2175 625 2575 
Q 1025 2975 1575 2975 
Q 2125 2975 2525 2575 
Q 2925 2175 2925 1525 
z
M 2375 1525 
Q 2375 2025 2125 2275 
Q 1875 2525 1575 2525 
Q 1275 2525 1025 2275 
Q 775 2025 775 1525 
Q 775 1025 1025 775 
Q 1275 525 1575 525 
Q 1875 525 2125 775 
Q 2375 1025 2375 1525 
z
" transform="scale(0.015625)"/>
                                <path id="SimHei-72" d="M 2500 2425
Q 2025 2500 1700 2287 
Q 1375 2075 1150 1550 
L 1150 125 
L 650 125 
L 650 2925 
L 1150 2925 
L 1150 2200 
Q 1375 2600 1712 2787 
Q 2050 2975 2500 2975 
L 2500 2425 
z
" transform="scale(0.015625)"/>
                                <path id="SimHei-64" d="M 2750 125
L 2250 125 
L 2250 500 
Q 2100 275 1900 175 
Q 1700 75 1425 75 
Q 925 75 575 437 
Q 225 800 225 1525 
Q 225 2250 575 2625 
Q 925 3000 1425 3000 
Q 1700 3000 1900 2887 
Q 2100 2775 2250 2550 
L 2250 4400 
L 2750 4400 
L 2750 125 
z
M 2250 1525 
Q 2250 2000 2037 2275 
Q 1825 2550 1525 2550 
Q 1150 2550 962 2275 
Q 775 2000 775 1525 
Q 775 1050 962 787 
Q 1150 525 1525 525 
Q 1825 525 2037 787 
Q 2250 1050 2250 1525 
z
" transform="scale(0.015625)"/>
                                <path id="SimHei-69" d="M 1800 3725
L 1300 3725 
L 1300 4375 
L 1800 4375 
L 1800 3725 
z
M 1800 125 
L 1300 125 
L 1300 2925 
L 1800 2925 
L 1800 125 
z
" transform="scale(0.015625)"/>
                                <path id="SimHei-6e" d="M 2800 125
L 2300 125 
L 2300 1925 
Q 2300 2225 2150 2400 
Q 2000 2575 1750 2575 
Q 1425 2575 1137 2237 
Q 850 1900 850 1400 
L 850 125 
L 350 125 
L 350 2925 
L 850 2925 
L 850 2400 
Q 1050 2675 1287 2825 
Q 1525 2975 1900 2975 
Q 2350 2975 2575 2725 
Q 2800 2475 2800 2100 
L 2800 125 
z
" transform="scale(0.015625)"/>
                                <path id="SimHei-61" d="M 2875 125
L 2275 125 
Q 2225 175 2200 262 
Q 2175 350 2175 475 
Q 2000 275 1750 175 
Q 1500 75 1225 75 
Q 825 75 550 275 
Q 275 475 275 850 
Q 275 1225 525 1450 
Q 775 1675 1300 1750 
Q 1650 1800 1912 1875 
Q 2175 1950 2175 2075 
Q 2175 2225 2062 2375 
Q 1950 2525 1575 2525 
Q 1275 2525 1137 2412 
Q 1000 2300 950 2100 
L 400 2100 
Q 450 2500 762 2737 
Q 1075 2975 1575 2975 
Q 2125 2975 2400 2725 
Q 2675 2475 2675 2025 
L 2675 650 
Q 2675 500 2725 375 
Q 2775 250 2875 125 
z
M 2175 1050 
L 2175 1550 
Q 2025 1500 1887 1462 
Q 1750 1425 1425 1375 
Q 1050 1325 937 1200 
Q 825 1075 825 900 
Q 825 750 937 637 
Q 1050 525 1275 525 
Q 1500 525 1762 650 
Q 2025 775 2175 1050 
z
" transform="scale(0.015625)"/>
                                <path id="SimHei-79" d="M 2900 2925
L 1750 -100 
Q 1650 -450 1450 -625 
Q 1250 -800 950 -800 
Q 825 -800 712 -787 
Q 600 -775 500 -725 
L 500 -225 
Q 600 -275 700 -300 
Q 800 -325 875 -325 
Q 1075 -325 1150 -262 
Q 1225 -200 1300 25 
L 200 2925 
L 750 2925 
L 1550 725 
L 1575 725 
L 2350 2925 
L 2900 2925 
z
" transform="scale(0.015625)"/>
                                <path id="SimHei-20" transform="scale(0.015625)"/>
                                <path id="SimHei-65" d="M 2850 1075
Q 2800 625 2450 350 
Q 2100 75 1625 75 
Q 1025 75 637 462 
Q 250 850 250 1525 
Q 250 2200 637 2587 
Q 1025 2975 1625 2975 
Q 2150 2975 2487 2637 
Q 2825 2300 2825 1525 
L 800 1525 
Q 800 975 1037 750 
Q 1275 525 1625 525 
Q 1900 525 2075 662 
Q 2250 800 2300 1075 
L 2850 1075 
z
M 2250 1925 
Q 2200 2275 2025 2412 
Q 1850 2550 1575 2550 
Q 1325 2550 1125 2412 
Q 925 2275 825 1925 
L 2250 1925 
z
" transform="scale(0.015625)"/>
                                <path id="SimHei-67" d="M 2975 2500
Q 2800 2550 2637 2562 
Q 2475 2575 2300 2525 
Q 2375 2450 2425 2337 
Q 2475 2225 2475 2000 
Q 2475 1575 2187 1300 
Q 1900 1025 1475 1025 
Q 1375 1025 1212 1062 
Q 1050 1100 950 1150 
Q 875 1100 850 1050 
Q 825 1000 825 925 
Q 825 800 1000 737 
Q 1175 675 1625 675 
Q 2350 675 2612 475 
Q 2875 275 2875 -25 
Q 2875 -425 2487 -612 
Q 2100 -800 1575 -800 
Q 900 -800 575 -625 
Q 250 -450 250 -150 
Q 250 0 375 150 
Q 500 300 700 400 
Q 550 475 462 587 
Q 375 700 375 875 
Q 375 1025 487 1137 
Q 600 1250 750 1325 
Q 625 1450 550 1625 
Q 475 1800 475 2000 
Q 475 2425 762 2700 
Q 1050 2975 1475 2975 
Q 1700 2975 1862 2912 
Q 2025 2850 2150 2725 
Q 2350 2875 2550 2937 
Q 2750 3000 2975 2975 
L 2975 2500 
z
M 1975 2000 
Q 1975 2250 1850 2400 
Q 1725 2550 1475 2550 
Q 1225 2550 1100 2400 
Q 975 2250 975 2000 
Q 975 1750 1100 1600 
Q 1225 1450 1475 1450 
Q 1725 1450 1850 1600 
Q 1975 1750 1975 2000 
z
M 2400 -75 
Q 2400 25 2287 125 
Q 2175 225 1725 225 
Q 1625 225 1450 237 
Q 1275 250 1050 275 
Q 850 200 775 100 
Q 700 0 700 -100 
Q 700 -250 900 -350 
Q 1100 -450 1600 -450 
Q 2025 -450 2212 -337 
Q 2400 -225 2400 -75 
z
" transform="scale(0.015625)"/>
                                <path id="SimHei-73" d="M 2750 900
Q 2750 500 2437 287 
Q 2125 75 1650 75 
Q 1050 75 725 312 
Q 400 550 400 1000 
L 900 1000 
Q 900 700 1112 600 
Q 1325 500 1625 500 
Q 1925 500 2075 612 
Q 2225 725 2225 900 
Q 2225 1025 2100 1150 
Q 1975 1275 1475 1350 
Q 900 1425 687 1637 
Q 475 1850 475 2200 
Q 475 2500 762 2737 
Q 1050 2975 1600 2975 
Q 2100 2975 2387 2750 
Q 2675 2525 2675 2150 
L 2175 2150 
Q 2175 2375 2012 2462 
Q 1850 2550 1600 2550 
Q 1275 2550 1137 2437 
Q 1000 2325 1000 2175 
Q 1000 2000 1125 1900 
Q 1250 1800 1650 1750 
Q 2300 1650 2525 1437 
Q 2750 1225 2750 900 
z
" transform="scale(0.015625)"/>
                            </defs>
                            <use xlink:href="#SimHei-6f"/>
                            <use xlink:href="#SimHei-72" x="50"/>
                            <use xlink:href="#SimHei-64" x="100"/>
                            <use xlink:href="#SimHei-69" x="150"/>
                            <use xlink:href="#SimHei-6e" x="200"/>
                            <use xlink:href="#SimHei-61" x="250"/>
                            <use xlink:href="#SimHei-72" x="300"/>
                            <use xlink:href="#SimHei-79" x="350"/>
                            <use xlink:href="#SimHei-20" x="400"/>
                            <use xlink:href="#SimHei-72" x="450"/>
                            <use xlink:href="#SimHei-65" x="500"/>
                            <use xlink:href="#SimHei-67" x="550"/>
                            <use xlink:href="#SimHei-72" x="600"/>
                            <use xlink:href="#SimHei-65" x="650"/>
                            <use xlink:href="#SimHei-73" x="700"/>
                            <use xlink:href="#SimHei-73" x="750"/>
                            <use xlink:href="#SimHei-69" x="800"/>
                            <use xlink:href="#SimHei-6f" x="850"/>
                            <use xlink:href="#SimHei-6e" x="900"/>
                        </g>
                    </g>
                </g>
                <g id="xtick_2">
                    <g id="line2d_2">
                        <g>
                            <use xlink:href="#m17f2895000" x="353.260766" y="640.8"
                                 style="stroke: #000000; stroke-width: 0.8"/>
                        </g>
                    </g>
                    <g id="text_2">
                        <!-- LASSO regression -->
                        <g transform="translate(313.260766 654.753125)scale(0.1 -0.1)">
                            <defs>
                                <path id="SimHei-4c" d="M 2900 125
L 300 125 
L 300 4400 
L 875 4400 
L 875 600 
L 2900 600 
L 2900 125 
z
" transform="scale(0.015625)"/>
                                <path id="SimHei-41" d="M 3075 125
L 2475 125 
L 2125 1450 
L 1025 1450 
L 675 125 
L 75 125 
L 1325 4450 
L 1825 4450 
L 3075 125 
z
M 2000 1925 
L 1600 3450 
L 1550 3450 
L 1150 1925 
L 2000 1925 
z
" transform="scale(0.015625)"/>
                                <path id="SimHei-53" d="M 2900 1325
Q 2900 750 2537 412 
Q 2175 75 1550 75 
Q 925 75 575 425 
Q 225 775 225 1300 
L 225 1475 
L 800 1475 
L 800 1325 
Q 800 950 1025 750 
Q 1250 550 1550 550 
Q 1950 550 2137 762 
Q 2325 975 2325 1275 
Q 2325 1525 2100 1737 
Q 1875 1950 1450 2125 
Q 850 2350 587 2625 
Q 325 2900 325 3275 
Q 325 3800 687 4125 
Q 1050 4450 1550 4450 
Q 2200 4450 2487 4062 
Q 2775 3675 2775 3225 
L 2200 3225 
Q 2225 3500 2050 3725 
Q 1875 3950 1550 3950 
Q 1250 3950 1075 3787 
Q 900 3625 900 3350 
Q 900 3125 1037 2962 
Q 1175 2800 1750 2575 
Q 2300 2350 2600 2037 
Q 2900 1725 2900 1325 
z
" transform="scale(0.015625)"/>
                                <path id="SimHei-4f" d="M 2950 2275
Q 2950 1100 2587 587 
Q 2225 75 1575 75 
Q 925 75 550 587 
Q 175 1100 175 2275 
Q 175 3450 550 3950 
Q 925 4450 1575 4450 
Q 2225 4450 2587 3950 
Q 2950 3450 2950 2275 
z
M 2350 2275 
Q 2350 3325 2125 3650 
Q 1900 3975 1575 3975 
Q 1250 3975 1012 3650 
Q 775 3325 775 2275 
Q 775 1225 1012 887 
Q 1250 550 1575 550 
Q 1900 550 2125 887 
Q 2350 1225 2350 2275 
z
" transform="scale(0.015625)"/>
                            </defs>
                            <use xlink:href="#SimHei-4c"/>
                            <use xlink:href="#SimHei-41" x="50"/>
                            <use xlink:href="#SimHei-53" x="100"/>
                            <use xlink:href="#SimHei-53" x="150"/>
                            <use xlink:href="#SimHei-4f" x="200"/>
                            <use xlink:href="#SimHei-20" x="250"/>
                            <use xlink:href="#SimHei-72" x="300"/>
                            <use xlink:href="#SimHei-65" x="350"/>
                            <use xlink:href="#SimHei-67" x="400"/>
                            <use xlink:href="#SimHei-72" x="450"/>
                            <use xlink:href="#SimHei-65" x="500"/>
                            <use xlink:href="#SimHei-73" x="550"/>
                            <use xlink:href="#SimHei-73" x="600"/>
                            <use xlink:href="#SimHei-69" x="650"/>
                            <use xlink:href="#SimHei-6f" x="700"/>
                            <use xlink:href="#SimHei-6e" x="750"/>
                        </g>
                    </g>
                </g>
                <g id="xtick_3">
                    <g id="line2d_3">
                        <g>
                            <use xlink:href="#m17f2895000" x="486.753589" y="640.8"
                                 style="stroke: #000000; stroke-width: 0.8"/>
                        </g>
                    </g>
                    <g id="text_3">
                        <!-- random forest regressor -->
                        <g transform="translate(429.253589 654.753125)scale(0.1 -0.1)">
                            <defs>
                                <path id="SimHei-6d" d="M 3050 125
L 2550 125 
L 2550 2150 
Q 2550 2300 2500 2400 
Q 2450 2500 2300 2500 
Q 2125 2500 1975 2312 
Q 1825 2125 1825 1825 
L 1825 125 
L 1325 125 
L 1325 2150 
Q 1325 2300 1275 2400 
Q 1225 2500 1075 2500 
Q 900 2500 750 2312 
Q 600 2125 600 1825 
L 600 125 
L 100 125 
L 100 2925 
L 600 2925 
L 600 2550 
Q 725 2750 900 2862 
Q 1075 2975 1275 2975 
Q 1475 2975 1612 2862 
Q 1750 2750 1800 2550 
Q 1925 2750 2087 2862 
Q 2250 2975 2450 2975 
Q 2750 2975 2900 2812 
Q 3050 2650 3050 2350 
L 3050 125 
z
" transform="scale(0.015625)"/>
                                <path id="SimHei-66" d="M 2850 3825
Q 2725 3900 2550 3950 
Q 2375 4000 2100 4000 
Q 1825 4000 1725 3862 
Q 1625 3725 1625 3525 
L 1625 2925 
L 2650 2925 
L 2650 2525 
L 1625 2525 
L 1625 125 
L 1125 125 
L 1125 2525 
L 275 2525 
L 275 2925 
L 1125 2925 
L 1125 3500 
Q 1125 3950 1400 4200 
Q 1675 4450 2125 4450 
Q 2400 4450 2562 4412 
Q 2725 4375 2850 4325 
L 2850 3825 
z
" transform="scale(0.015625)"/>
                                <path id="SimHei-74" d="M 2750 200
Q 2625 150 2462 112 
Q 2300 75 2025 75 
Q 1575 75 1300 325 
Q 1025 575 1025 1025 
L 1025 2525 
L 175 2525 
L 175 2925 
L 1025 2925 
L 1025 3900 
L 1525 3900 
L 1525 2925 
L 2550 2925 
L 2550 2525 
L 1525 2525 
L 1525 1000 
Q 1525 800 1625 662 
Q 1725 525 2000 525 
Q 2275 525 2450 575 
Q 2625 625 2750 700 
L 2750 200 
z
" transform="scale(0.015625)"/>
                            </defs>
                            <use xlink:href="#SimHei-72"/>
                            <use xlink:href="#SimHei-61" x="50"/>
                            <use xlink:href="#SimHei-6e" x="100"/>
                            <use xlink:href="#SimHei-64" x="150"/>
                            <use xlink:href="#SimHei-6f" x="200"/>
                            <use xlink:href="#SimHei-6d" x="250"/>
                            <use xlink:href="#SimHei-20" x="300"/>
                            <use xlink:href="#SimHei-66" x="350"/>
                            <use xlink:href="#SimHei-6f" x="400"/>
                            <use xlink:href="#SimHei-72" x="450"/>
                            <use xlink:href="#SimHei-65" x="500"/>
                            <use xlink:href="#SimHei-73" x="550"/>
                            <use xlink:href="#SimHei-74" x="600"/>
                            <use xlink:href="#SimHei-20" x="650"/>
                            <use xlink:href="#SimHei-72" x="700"/>
                            <use xlink:href="#SimHei-65" x="750"/>
                            <use xlink:href="#SimHei-67" x="800"/>
                            <use xlink:href="#SimHei-72" x="850"/>
                            <use xlink:href="#SimHei-65" x="900"/>
                            <use xlink:href="#SimHei-73" x="950"/>
                            <use xlink:href="#SimHei-73" x="1000"/>
                            <use xlink:href="#SimHei-6f" x="1050"/>
                            <use xlink:href="#SimHei-72" x="1100"/>
                        </g>
                    </g>
                </g>
                <g id="xtick_4">
                    <g id="line2d_4">
                        <g>
                            <use xlink:href="#m17f2895000" x="620.246411" y="640.8"
                                 style="stroke: #000000; stroke-width: 0.8"/>
                        </g>
                    </g>
                    <g id="text_4">
                        <!-- extra trees regressor -->
                        <g transform="translate(567.746411 654.675)scale(0.1 -0.1)">
                            <defs>
                                <path id="SimHei-78" d="M 2875 125
L 2275 125 
L 1550 1200 
L 825 125 
L 225 125 
L 1250 1550 
L 300 2925 
L 900 2925 
L 1550 1875 
L 2200 2925 
L 2800 2925 
L 1850 1550 
L 2875 125 
z
" transform="scale(0.015625)"/>
                            </defs>
                            <use xlink:href="#SimHei-65"/>
                            <use xlink:href="#SimHei-78" x="50"/>
                            <use xlink:href="#SimHei-74" x="100"/>
                            <use xlink:href="#SimHei-72" x="150"/>
                            <use xlink:href="#SimHei-61" x="200"/>
                            <use xlink:href="#SimHei-20" x="250"/>
                            <use xlink:href="#SimHei-74" x="300"/>
                            <use xlink:href="#SimHei-72" x="350"/>
                            <use xlink:href="#SimHei-65" x="400"/>
                            <use xlink:href="#SimHei-65" x="450"/>
                            <use xlink:href="#SimHei-73" x="500"/>
                            <use xlink:href="#SimHei-20" x="550"/>
                            <use xlink:href="#SimHei-72" x="600"/>
                            <use xlink:href="#SimHei-65" x="650"/>
                            <use xlink:href="#SimHei-67" x="700"/>
                            <use xlink:href="#SimHei-72" x="750"/>
                            <use xlink:href="#SimHei-65" x="800"/>
                            <use xlink:href="#SimHei-73" x="850"/>
                            <use xlink:href="#SimHei-73" x="900"/>
                            <use xlink:href="#SimHei-6f" x="950"/>
                            <use xlink:href="#SimHei-72" x="1000"/>
                        </g>
                    </g>
                </g>
                <g id="xtick_5">
                    <g id="line2d_5">
                        <g>
                            <use xlink:href="#m17f2895000" x="753.739234" y="640.8"
                                 style="stroke: #000000; stroke-width: 0.8"/>
                        </g>
                    </g>
                    <g id="text_5">
                        <!-- gradient boosting regressor -->
                        <g transform="translate(686.239234 654.675)scale(0.1 -0.1)">
                            <defs>
                                <path id="SimHei-62" d="M 2825 1525
Q 2825 800 2475 437 
Q 2125 75 1625 75 
Q 1350 75 1150 175 
Q 950 275 800 500 
L 800 125 
L 300 125 
L 300 4400 
L 800 4400 
L 800 2550 
Q 950 2775 1150 2887 
Q 1350 3000 1625 3000 
Q 2125 3000 2475 2625 
Q 2825 2250 2825 1525 
z
M 2275 1525 
Q 2275 2000 2087 2275 
Q 1900 2550 1525 2550 
Q 1225 2550 1012 2275 
Q 800 2000 800 1525 
Q 800 1050 1012 787 
Q 1225 525 1525 525 
Q 1900 525 2087 787 
Q 2275 1050 2275 1525 
z
" transform="scale(0.015625)"/>
                            </defs>
                            <use xlink:href="#SimHei-67"/>
                            <use xlink:href="#SimHei-72" x="50"/>
                            <use xlink:href="#SimHei-61" x="100"/>
                            <use xlink:href="#SimHei-64" x="150"/>
                            <use xlink:href="#SimHei-69" x="200"/>
                            <use xlink:href="#SimHei-65" x="250"/>
                            <use xlink:href="#SimHei-6e" x="300"/>
                            <use xlink:href="#SimHei-74" x="350"/>
                            <use xlink:href="#SimHei-20" x="400"/>
                            <use xlink:href="#SimHei-62" x="450"/>
                            <use xlink:href="#SimHei-6f" x="500"/>
                            <use xlink:href="#SimHei-6f" x="550"/>
                            <use xlink:href="#SimHei-73" x="600"/>
                            <use xlink:href="#SimHei-74" x="650"/>
                            <use xlink:href="#SimHei-69" x="700"/>
                            <use xlink:href="#SimHei-6e" x="750"/>
                            <use xlink:href="#SimHei-67" x="800"/>
                            <use xlink:href="#SimHei-20" x="850"/>
                            <use xlink:href="#SimHei-72" x="900"/>
                            <use xlink:href="#SimHei-65" x="950"/>
                            <use xlink:href="#SimHei-67" x="1000"/>
                            <use xlink:href="#SimHei-72" x="1050"/>
                            <use xlink:href="#SimHei-65" x="1100"/>
                            <use xlink:href="#SimHei-73" x="1150"/>
                            <use xlink:href="#SimHei-73" x="1200"/>
                            <use xlink:href="#SimHei-6f" x="1250"/>
                            <use xlink:href="#SimHei-72" x="1300"/>
                        </g>
                    </g>
                </g>
                <g id="xtick_6">
                    <g id="line2d_6">
                        <g>
                            <use xlink:href="#m17f2895000" x="887.232057" y="640.8"
                                 style="stroke: #000000; stroke-width: 0.8"/>
                        </g>
                    </g>
                    <g id="text_6">
                        <!-- mlp regressor -->
                        <g transform="translate(854.732057 654.675)scale(0.1 -0.1)">
                            <defs>
                                <path id="SimHei-6c" d="M 1825 125
L 1325 125 
L 1325 4400 
L 1825 4400 
L 1825 125 
z
" transform="scale(0.015625)"/>
                                <path id="SimHei-70" d="M 2825 1525
Q 2825 800 2475 425 
Q 2125 50 1625 50 
Q 1350 50 1150 162 
Q 950 275 800 500 
L 800 -800 
L 300 -800 
L 300 2925 
L 800 2925 
L 800 2550 
Q 950 2775 1150 2875 
Q 1350 2975 1625 2975 
Q 2125 2975 2475 2612 
Q 2825 2250 2825 1525 
z
M 2275 1525 
Q 2275 2000 2087 2262 
Q 1900 2525 1525 2525 
Q 1225 2525 1012 2262 
Q 800 2000 800 1525 
Q 800 1050 1012 775 
Q 1225 500 1525 500 
Q 1900 500 2087 775 
Q 2275 1050 2275 1525 
z
" transform="scale(0.015625)"/>
                            </defs>
                            <use xlink:href="#SimHei-6d"/>
                            <use xlink:href="#SimHei-6c" x="50"/>
                            <use xlink:href="#SimHei-70" x="100"/>
                            <use xlink:href="#SimHei-20" x="150"/>
                            <use xlink:href="#SimHei-72" x="200"/>
                            <use xlink:href="#SimHei-65" x="250"/>
                            <use xlink:href="#SimHei-67" x="300"/>
                            <use xlink:href="#SimHei-72" x="350"/>
                            <use xlink:href="#SimHei-65" x="400"/>
                            <use xlink:href="#SimHei-73" x="450"/>
                            <use xlink:href="#SimHei-73" x="500"/>
                            <use xlink:href="#SimHei-6f" x="550"/>
                            <use xlink:href="#SimHei-72" x="600"/>
                        </g>
                    </g>
                </g>
                <g id="text_7">
                    <!-- models -->
                    <g transform="translate(538.5 666.878125)scale(0.1 -0.1)">
                        <use xlink:href="#SimHei-6d"/>
                        <use xlink:href="#SimHei-6f" x="50"/>
                        <use xlink:href="#SimHei-64" x="100"/>
                        <use xlink:href="#SimHei-65" x="150"/>
                        <use xlink:href="#SimHei-6c" x="200"/>
                        <use xlink:href="#SimHei-73" x="250"/>
                    </g>
                </g>
            </g>
            <g id="matplotlib.axis_2">
                <g id="ytick_1">
                    <g id="line2d_7">
                        <defs>
                            <path id="m2b00ba5549" d="M 0 0
L -3.5 0 
" style="stroke: #000000; stroke-width: 0.8"/>
                        </defs>
                        <g>
                            <use xlink:href="#m2b00ba5549" x="135" y="640.8"
                                 style="stroke: #000000; stroke-width: 0.8"/>
                        </g>
                    </g>
                    <g id="text_8">
                        <!-- 0.0 -->
                        <g transform="translate(113 644.2375)scale(0.1 -0.1)">
                            <defs>
                                <path id="SimHei-30" d="M 225 2537
Q 250 3200 412 3587 
Q 575 3975 875 4225 
Q 1175 4475 1612 4475 
Q 2050 4475 2375 4112 
Q 2700 3750 2800 3200 
Q 2900 2650 2862 1937 
Q 2825 1225 2612 775 
Q 2400 325 1975 150 
Q 1550 -25 1125 187 
Q 700 400 525 750 
Q 350 1100 275 1487 
Q 200 1875 225 2537 
z
M 750 2687 
Q 675 2000 800 1462 
Q 925 925 1212 700 
Q 1500 475 1800 612 
Q 2100 750 2237 1162 
Q 2375 1575 2375 2062 
Q 2375 2550 2337 2950 
Q 2300 3350 2112 3675 
Q 1925 4000 1612 4012 
Q 1300 4025 1062 3700 
Q 825 3375 750 2687 
z
" transform="scale(0.015625)"/>
                                <path id="SimHei-2e" d="M 1075 125
L 500 125 
L 500 675 
L 1075 675 
L 1075 125 
z
" transform="scale(0.015625)"/>
                            </defs>
                            <use xlink:href="#SimHei-30"/>
                            <use xlink:href="#SimHei-2e" x="50"/>
                            <use xlink:href="#SimHei-30" x="100"/>
                        </g>
                    </g>
                </g>
                <g id="ytick_2">
                    <g id="line2d_8">
                        <g>
                            <use xlink:href="#m2b00ba5549" x="135" y="532.396006"
                                 style="stroke: #000000; stroke-width: 0.8"/>
                        </g>
                    </g>
                    <g id="text_9">
                        <!-- 0.2 -->
                        <g transform="translate(113 535.833506)scale(0.1 -0.1)">
                            <defs>
                                <path id="SimHei-32" d="M 300 250
Q 325 625 650 925 
Q 975 1225 1475 1862 
Q 1975 2500 2125 2850 
Q 2275 3200 2237 3450 
Q 2200 3700 2000 3862 
Q 1800 4025 1537 4000 
Q 1275 3975 1037 3800 
Q 800 3625 675 3275 
L 200 3350 
Q 400 3925 712 4187 
Q 1025 4450 1450 4475 
Q 1700 4500 1900 4462 
Q 2100 4425 2312 4287 
Q 2525 4150 2662 3875 
Q 2800 3600 2762 3212 
Q 2725 2825 2375 2287 
Q 2025 1750 1025 600 
L 2825 600 
L 2825 150 
L 300 150 
L 300 250 
z
" transform="scale(0.015625)"/>
                            </defs>
                            <use xlink:href="#SimHei-30"/>
                            <use xlink:href="#SimHei-2e" x="50"/>
                            <use xlink:href="#SimHei-32" x="100"/>
                        </g>
                    </g>
                </g>
                <g id="ytick_3">
                    <g id="line2d_9">
                        <g>
                            <use xlink:href="#m2b00ba5549" x="135" y="423.992012"
                                 style="stroke: #000000; stroke-width: 0.8"/>
                        </g>
                    </g>
                    <g id="text_10">
                        <!-- 0.4 -->
                        <g transform="translate(113 427.429512)scale(0.1 -0.1)">
                            <defs>
                                <path id="SimHei-34" d="M 2000 1100
L 75 1100 
L 75 1525 
L 2100 4450 
L 2475 4450 
L 2475 1525 
L 3075 1525 
L 3075 1100 
L 2475 1100 
L 2475 150 
L 2000 150 
L 2000 1100 
z
M 2000 1525 
L 2000 3500 
L 600 1525 
L 2000 1525 
z
" transform="scale(0.015625)"/>
                            </defs>
                            <use xlink:href="#SimHei-30"/>
                            <use xlink:href="#SimHei-2e" x="50"/>
                            <use xlink:href="#SimHei-34" x="100"/>
                        </g>
                    </g>
                </g>
                <g id="ytick_4">
                    <g id="line2d_10">
                        <g>
                            <use xlink:href="#m2b00ba5549" x="135" y="315.588017"
                                 style="stroke: #000000; stroke-width: 0.8"/>
                        </g>
                    </g>
                    <g id="text_11">
                        <!-- 0.6 -->
                        <g transform="translate(113 319.025517)scale(0.1 -0.1)">
                            <defs>
                                <path id="SimHei-36" d="M 250 1612
Q 275 1975 387 2225 
Q 500 2475 725 2850 
L 1750 4450 
L 2325 4450 
L 1275 2800 
Q 1950 2975 2350 2750 
Q 2750 2525 2887 2237 
Q 3025 1950 3037 1612 
Q 3050 1275 2937 950 
Q 2825 625 2537 362 
Q 2250 100 1737 75 
Q 1225 50 862 262 
Q 500 475 362 862 
Q 225 1250 250 1612 
z
M 1025 787 
Q 1250 550 1625 525 
Q 2000 500 2250 775 
Q 2500 1050 2500 1575 
Q 2500 2100 2187 2300 
Q 1875 2500 1487 2450 
Q 1100 2400 925 2075 
Q 750 1750 775 1387 
Q 800 1025 1025 787 
z
" transform="scale(0.015625)"/>
                            </defs>
                            <use xlink:href="#SimHei-30"/>
                            <use xlink:href="#SimHei-2e" x="50"/>
                            <use xlink:href="#SimHei-36" x="100"/>
                        </g>
                    </g>
                </g>
                <g id="ytick_5">
                    <g id="line2d_11">
                        <g>
                            <use xlink:href="#m2b00ba5549" x="135" y="207.184023"
                                 style="stroke: #000000; stroke-width: 0.8"/>
                        </g>
                    </g>
                    <g id="text_12">
                        <!-- 0.8 -->
                        <g transform="translate(113 210.621523)scale(0.1 -0.1)">
                            <defs>
                                <path id="SimHei-38" d="M 175 1375
Q 175 1675 325 1962 
Q 475 2250 825 2425 
Q 525 2600 425 2812 
Q 325 3025 312 3300 
Q 300 3575 387 3775 
Q 475 3975 650 4150 
Q 825 4325 1037 4387 
Q 1250 4450 1500 4450 
Q 1750 4450 1950 4400 
Q 2150 4350 2375 4187 
Q 2600 4025 2700 3725 
Q 2800 3425 2687 3025 
Q 2575 2625 2100 2400 
Q 2525 2275 2700 2012 
Q 2875 1750 2875 1375 
Q 2875 1000 2762 775 
Q 2650 550 2512 400 
Q 2375 250 2137 162 
Q 1900 75 1537 75 
Q 1175 75 912 162 
Q 650 250 475 425 
Q 300 600 237 837 
Q 175 1075 175 1375 
z
M 687 1400 
Q 675 1100 787 875 
Q 900 650 1200 587 
Q 1500 525 1825 600 
Q 2150 675 2275 950 
Q 2400 1225 2362 1500 
Q 2325 1775 2050 1962 
Q 1775 2150 1450 2125 
Q 1125 2100 912 1900 
Q 700 1700 687 1400 
z
M 775 3350 
Q 775 3100 950 2875 
Q 1125 2650 1500 2650 
Q 1875 2650 2062 2875 
Q 2250 3100 2237 3412 
Q 2225 3725 2012 3875 
Q 1800 4025 1437 4000 
Q 1075 3975 925 3787 
Q 775 3600 775 3350 
z
" transform="scale(0.015625)"/>
                            </defs>
                            <use xlink:href="#SimHei-30"/>
                            <use xlink:href="#SimHei-2e" x="50"/>
                            <use xlink:href="#SimHei-38" x="100"/>
                        </g>
                    </g>
                </g>
                <g id="ytick_6">
                    <g id="line2d_12">
                        <g>
                            <use xlink:href="#m2b00ba5549" x="135" y="98.780029"
                                 style="stroke: #000000; stroke-width: 0.8"/>
                        </g>
                    </g>
                    <g id="text_13">
                        <!-- 1.0 -->
                        <g transform="translate(113 102.217529)scale(0.1 -0.1)">
                            <defs>
                                <path id="SimHei-31" d="M 1400 3600
Q 1075 3275 575 2975 
L 575 3450 
Q 1200 3875 1600 4450 
L 1900 4450 
L 1900 150 
L 1400 150 
L 1400 3600 
z
" transform="scale(0.015625)"/>
                            </defs>
                            <use xlink:href="#SimHei-31"/>
                            <use xlink:href="#SimHei-2e" x="50"/>
                            <use xlink:href="#SimHei-30" x="100"/>
                        </g>
                    </g>
                </g>
                <g id="text_14">
                    <!-- r2 score -->
                    <g transform="translate(107.75 383.6)rotate(-90)scale(0.1 -0.1)">
                        <defs>
                            <path id="SimHei-63" d="M 2850 1250
Q 2850 725 2487 400 
Q 2125 75 1575 75 
Q 1025 75 625 462 
Q 225 850 225 1525 
Q 225 2200 625 2587 
Q 1025 2975 1575 2975 
Q 2125 2975 2450 2687 
Q 2775 2400 2775 2000 
L 2225 2000 
Q 2200 2300 2012 2412 
Q 1825 2525 1575 2525 
Q 1275 2525 1025 2287 
Q 775 2050 775 1525 
Q 775 1000 1025 762 
Q 1275 525 1575 525 
Q 1900 525 2100 700 
Q 2300 875 2300 1250 
L 2850 1250 
z
" transform="scale(0.015625)"/>
                        </defs>
                        <use xlink:href="#SimHei-72"/>
                        <use xlink:href="#SimHei-32" x="50"/>
                        <use xlink:href="#SimHei-20" x="100"/>
                        <use xlink:href="#SimHei-73" x="150"/>
                        <use xlink:href="#SimHei-63" x="200"/>
                        <use xlink:href="#SimHei-6f" x="250"/>
                        <use xlink:href="#SimHei-72" x="300"/>
                        <use xlink:href="#SimHei-65" x="350"/>
                    </g>
                </g>
            </g>
            <g id="patch_15">
                <path d="M 135 640.8
L 135 86.4 
" style="fill: none; stroke: #000000; stroke-width: 0.8; stroke-linejoin: miter; stroke-linecap: square"/>
            </g>
            <g id="patch_16">
                <path d="M 972 640.8
L 972 86.4 
" style="fill: none; stroke: #000000; stroke-width: 0.8; stroke-linejoin: miter; stroke-linecap: square"/>
            </g>
            <g id="patch_17">
                <path d="M 135 640.8
L 972 640.8 
" style="fill: none; stroke: #000000; stroke-width: 0.8; stroke-linejoin: miter; stroke-linecap: square"/>
            </g>
            <g id="patch_18">
                <path d="M 135 86.4
L 972 86.4 
" style="fill: none; stroke: #000000; stroke-width: 0.8; stroke-linejoin: miter; stroke-linecap: square"/>
            </g>
            <g id="legend_1">
                <g id="patch_19">
                    <path d="M 863 120.9
L 965 120.9 
Q 967 120.9 967 118.9 
L 967 93.4 
Q 967 91.4 965 91.4 
L 863 91.4 
Q 861 91.4 861 93.4 
L 861 118.9 
Q 861 120.9 863 120.9 
z
" style="fill: #ffffff; opacity: 0.8; stroke: #cccccc; stroke-linejoin: miter"/>
                </g>
                <g id="patch_20">
                    <path d="M 865 102.4
L 885 102.4 
L 885 95.4 
L 865 95.4 
z
" style="fill: #00bfbf"/>
                </g>
                <g id="text_15">
                    <!-- train r2 score -->
                    <g transform="translate(893 102.4)scale(0.1 -0.1)">
                        <use xlink:href="#SimHei-74"/>
                        <use xlink:href="#SimHei-72" x="50"/>
                        <use xlink:href="#SimHei-61" x="100"/>
                        <use xlink:href="#SimHei-69" x="150"/>
                        <use xlink:href="#SimHei-6e" x="200"/>
                        <use xlink:href="#SimHei-20" x="250"/>
                        <use xlink:href="#SimHei-72" x="300"/>
                        <use xlink:href="#SimHei-32" x="350"/>
                        <use xlink:href="#SimHei-20" x="400"/>
                        <use xlink:href="#SimHei-73" x="450"/>
                        <use xlink:href="#SimHei-63" x="500"/>
                        <use xlink:href="#SimHei-6f" x="550"/>
                        <use xlink:href="#SimHei-72" x="600"/>
                        <use xlink:href="#SimHei-65" x="650"/>
                    </g>
                </g>
                <g id="patch_21">
                    <path d="M 865 115.65
L 885 115.65 
L 885 108.65 
L 865 108.65 
z
" style="fill: #0000ff"/>
                </g>
                <g id="text_16">
                    <!-- test r2 score -->
                    <g transform="translate(893 115.65)scale(0.1 -0.1)">
                        <use xlink:href="#SimHei-74"/>
                        <use xlink:href="#SimHei-65" x="50"/>
                        <use xlink:href="#SimHei-73" x="100"/>
                        <use xlink:href="#SimHei-74" x="150"/>
                        <use xlink:href="#SimHei-20" x="200"/>
                        <use xlink:href="#SimHei-72" x="250"/>
                        <use xlink:href="#SimHei-32" x="300"/>
                        <use xlink:href="#SimHei-20" x="350"/>
                        <use xlink:href="#SimHei-73" x="400"/>
                        <use xlink:href="#SimHei-63" x="450"/>
                        <use xlink:href="#SimHei-6f" x="500"/>
                        <use xlink:href="#SimHei-72" x="550"/>
                        <use xlink:href="#SimHei-65" x="600"/>
                    </g>
                </g>
            </g>
        </g>
    </g>
    <defs>
        <clipPath id="p2aede3cfa3">
            <rect x="135" y="86.4" width="837" height="554.4"/>
        </clipPath>
    </defs>
</svg>
