<?xml version="1.0" encoding="utf-8" standalone="no"?>
<!DOCTYPE svg PUBLIC "-//W3C//DTD SVG 1.1//EN"
        "http://www.w3.org/Graphics/SVG/1.1/DTD/svg11.dtd">
<svg xmlns:xlink="http://www.w3.org/1999/xlink" width="1728pt" height="720pt" viewBox="0 0 1728 720"
     xmlns="http://www.w3.org/2000/svg" version="1.1">
    <metadata>
        <rdf:RDF xmlns:dc="http://purl.org/dc/elements/1.1/" xmlns:cc="http://creativecommons.org/ns#"
                 xmlns:rdf="http://www.w3.org/1999/02/22-rdf-syntax-ns#">
            <cc:Work>
                <dc:type rdf:resource="http://purl.org/dc/dcmitype/StillImage"/>
                <dc:date>2022-05-29T20:45:17.431520</dc:date>
                <dc:format>image/svg+xml</dc:format>
                <dc:creator>
                    <cc:Agent>
                        <dc:title>Matplotlib v3.5.1, https://matplotlib.org/</dc:title>
                    </cc:Agent>
                </dc:creator>
            </cc:Work>
        </rdf:RDF>
    </metadata>
    <defs>
        <style type="text/css">*{stroke-linejoin: round; stroke-linecap: butt}</style>
    </defs>
    <g id="figure_1">
        <g id="patch_1">
            <path d="M 0 720
L 1728 720 
L 1728 0 
L 0 0 
z
" style="fill: #ffffff"/>
        </g>
        <g id="axes_1">
            <g id="patch_2">
                <path d="M 216 630
L 1555.2 630 
L 1555.2 86.4 
L 216 86.4 
z
" style="fill: #ffffff"/>
            </g>
            <g id="matplotlib.axis_1">
                <g id="xtick_1">
                    <g id="line2d_1">
                        <path d="M 276.872727 630
L 276.872727 86.4 
" clip-path="url(#p35952cda14)" style="fill: none; stroke: #cccccc; stroke-width: 0.8; stroke-linecap: round"/>
                    </g>
                    <g id="text_1">
                        <!-- 0 -->
                        <g style="fill: #262626" transform="translate(274.092259 644.157812)scale(0.1 -0.1)">
                            <defs>
                                <path id="ArialMT-30" d="M 266 2259
Q 266 3072 433 3567 
Q 600 4063 929 4331 
Q 1259 4600 1759 4600 
Q 2128 4600 2406 4451 
Q 2684 4303 2865 4023 
Q 3047 3744 3150 3342 
Q 3253 2941 3253 2259 
Q 3253 1453 3087 958 
Q 2922 463 2592 192 
Q 2263 -78 1759 -78 
Q 1097 -78 719 397 
Q 266 969 266 2259 
z
M 844 2259 
Q 844 1131 1108 757 
Q 1372 384 1759 384 
Q 2147 384 2411 759 
Q 2675 1134 2675 2259 
Q 2675 3391 2411 3762 
Q 2147 4134 1753 4134 
Q 1366 4134 1134 3806 
Q 844 3388 844 2259 
z
" transform="scale(0.015625)"/>
                            </defs>
                            <use xlink:href="#ArialMT-30"/>
                        </g>
                    </g>
                </g>
                <g id="xtick_2">
                    <g id="line2d_2">
                        <path d="M 443.647323 630
L 443.647323 86.4 
" clip-path="url(#p35952cda14)" style="fill: none; stroke: #cccccc; stroke-width: 0.8; stroke-linecap: round"/>
                    </g>
                    <g id="text_2">
                        <!-- 50 -->
                        <g style="fill: #262626" transform="translate(438.086385 644.157812)scale(0.1 -0.1)">
                            <defs>
                                <path id="ArialMT-35" d="M 266 1200
L 856 1250 
Q 922 819 1161 601 
Q 1400 384 1738 384 
Q 2144 384 2425 690 
Q 2706 997 2706 1503 
Q 2706 1984 2436 2262 
Q 2166 2541 1728 2541 
Q 1456 2541 1237 2417 
Q 1019 2294 894 2097 
L 366 2166 
L 809 4519 
L 3088 4519 
L 3088 3981 
L 1259 3981 
L 1013 2750 
Q 1425 3038 1878 3038 
Q 2478 3038 2890 2622 
Q 3303 2206 3303 1553 
Q 3303 931 2941 478 
Q 2500 -78 1738 -78 
Q 1113 -78 717 272 
Q 322 622 266 1200 
z
" transform="scale(0.015625)"/>
                            </defs>
                            <use xlink:href="#ArialMT-35"/>
                            <use xlink:href="#ArialMT-30" x="55.615234"/>
                        </g>
                    </g>
                </g>
                <g id="xtick_3">
                    <g id="line2d_3">
                        <path d="M 610.421918 630
L 610.421918 86.4 
" clip-path="url(#p35952cda14)" style="fill: none; stroke: #cccccc; stroke-width: 0.8; stroke-linecap: round"/>
                    </g>
                    <g id="text_3">
                        <!-- 100 -->
                        <g style="fill: #262626" transform="translate(602.080512 644.157812)scale(0.1 -0.1)">
                            <defs>
                                <path id="ArialMT-31" d="M 2384 0
L 1822 0 
L 1822 3584 
Q 1619 3391 1289 3197 
Q 959 3003 697 2906 
L 697 3450 
Q 1169 3672 1522 3987 
Q 1875 4303 2022 4600 
L 2384 4600 
L 2384 0 
z
" transform="scale(0.015625)"/>
                            </defs>
                            <use xlink:href="#ArialMT-31"/>
                            <use xlink:href="#ArialMT-30" x="55.615234"/>
                            <use xlink:href="#ArialMT-30" x="111.230469"/>
                        </g>
                    </g>
                </g>
                <g id="xtick_4">
                    <g id="line2d_4">
                        <path d="M 777.196513 630
L 777.196513 86.4 
" clip-path="url(#p35952cda14)" style="fill: none; stroke: #cccccc; stroke-width: 0.8; stroke-linecap: round"/>
                    </g>
                    <g id="text_4">
                        <!-- 150 -->
                        <g style="fill: #262626" transform="translate(768.855107 644.157812)scale(0.1 -0.1)">
                            <use xlink:href="#ArialMT-31"/>
                            <use xlink:href="#ArialMT-35" x="55.615234"/>
                            <use xlink:href="#ArialMT-30" x="111.230469"/>
                        </g>
                    </g>
                </g>
                <g id="xtick_5">
                    <g id="line2d_5">
                        <path d="M 943.971108 630
L 943.971108 86.4 
" clip-path="url(#p35952cda14)" style="fill: none; stroke: #cccccc; stroke-width: 0.8; stroke-linecap: round"/>
                    </g>
                    <g id="text_5">
                        <!-- 200 -->
                        <g style="fill: #262626" transform="translate(935.629702 644.157812)scale(0.1 -0.1)">
                            <defs>
                                <path id="ArialMT-32" d="M 3222 541
L 3222 0 
L 194 0 
Q 188 203 259 391 
Q 375 700 629 1000 
Q 884 1300 1366 1694 
Q 2113 2306 2375 2664 
Q 2638 3022 2638 3341 
Q 2638 3675 2398 3904 
Q 2159 4134 1775 4134 
Q 1369 4134 1125 3890 
Q 881 3647 878 3216 
L 300 3275 
Q 359 3922 746 4261 
Q 1134 4600 1788 4600 
Q 2447 4600 2831 4234 
Q 3216 3869 3216 3328 
Q 3216 3053 3103 2787 
Q 2991 2522 2730 2228 
Q 2469 1934 1863 1422 
Q 1356 997 1212 845 
Q 1069 694 975 541 
L 3222 541 
z
" transform="scale(0.015625)"/>
                            </defs>
                            <use xlink:href="#ArialMT-32"/>
                            <use xlink:href="#ArialMT-30" x="55.615234"/>
                            <use xlink:href="#ArialMT-30" x="111.230469"/>
                        </g>
                    </g>
                </g>
                <g id="xtick_6">
                    <g id="line2d_6">
                        <path d="M 1110.745704 630
L 1110.745704 86.4 
" clip-path="url(#p35952cda14)" style="fill: none; stroke: #cccccc; stroke-width: 0.8; stroke-linecap: round"/>
                    </g>
                    <g id="text_6">
                        <!-- 250 -->
                        <g style="fill: #262626" transform="translate(1102.404297 644.157812)scale(0.1 -0.1)">
                            <use xlink:href="#ArialMT-32"/>
                            <use xlink:href="#ArialMT-35" x="55.615234"/>
                            <use xlink:href="#ArialMT-30" x="111.230469"/>
                        </g>
                    </g>
                </g>
                <g id="xtick_7">
                    <g id="line2d_7">
                        <path d="M 1277.520299 630
L 1277.520299 86.4 
" clip-path="url(#p35952cda14)" style="fill: none; stroke: #cccccc; stroke-width: 0.8; stroke-linecap: round"/>
                    </g>
                    <g id="text_7">
                        <!-- 300 -->
                        <g style="fill: #262626" transform="translate(1269.178893 644.157812)scale(0.1 -0.1)">
                            <defs>
                                <path id="ArialMT-33" d="M 269 1209
L 831 1284 
Q 928 806 1161 595 
Q 1394 384 1728 384 
Q 2125 384 2398 659 
Q 2672 934 2672 1341 
Q 2672 1728 2419 1979 
Q 2166 2231 1775 2231 
Q 1616 2231 1378 2169 
L 1441 2663 
Q 1497 2656 1531 2656 
Q 1891 2656 2178 2843 
Q 2466 3031 2466 3422 
Q 2466 3731 2256 3934 
Q 2047 4138 1716 4138 
Q 1388 4138 1169 3931 
Q 950 3725 888 3313 
L 325 3413 
Q 428 3978 793 4289 
Q 1159 4600 1703 4600 
Q 2078 4600 2393 4439 
Q 2709 4278 2876 4000 
Q 3044 3722 3044 3409 
Q 3044 3113 2884 2869 
Q 2725 2625 2413 2481 
Q 2819 2388 3044 2092 
Q 3269 1797 3269 1353 
Q 3269 753 2831 336 
Q 2394 -81 1725 -81 
Q 1122 -81 723 278 
Q 325 638 269 1209 
z
" transform="scale(0.015625)"/>
                            </defs>
                            <use xlink:href="#ArialMT-33"/>
                            <use xlink:href="#ArialMT-30" x="55.615234"/>
                            <use xlink:href="#ArialMT-30" x="111.230469"/>
                        </g>
                    </g>
                </g>
                <g id="xtick_8">
                    <g id="line2d_8">
                        <path d="M 1444.294894 630
L 1444.294894 86.4 
" clip-path="url(#p35952cda14)" style="fill: none; stroke: #cccccc; stroke-width: 0.8; stroke-linecap: round"/>
                    </g>
                    <g id="text_8">
                        <!-- 350 -->
                        <g style="fill: #262626" transform="translate(1435.953488 644.157812)scale(0.1 -0.1)">
                            <use xlink:href="#ArialMT-33"/>
                            <use xlink:href="#ArialMT-35" x="55.615234"/>
                            <use xlink:href="#ArialMT-30" x="111.230469"/>
                        </g>
                    </g>
                </g>
            </g>
            <g id="matplotlib.axis_2">
                <g id="ytick_1">
                    <g id="line2d_9">
                        <path d="M 216 606.622936
L 1555.2 606.622936 
" clip-path="url(#p35952cda14)" style="fill: none; stroke: #cccccc; stroke-width: 0.8; stroke-linecap: round"/>
                    </g>
                    <g id="text_9">
                        <!-- 0 -->
                        <g style="fill: #262626" transform="translate(203.439063 610.201842)scale(0.1 -0.1)">
                            <use xlink:href="#ArialMT-30"/>
                        </g>
                    </g>
                </g>
                <g id="ytick_2">
                    <g id="line2d_10">
                        <path d="M 216 540.021612
L 1555.2 540.021612 
" clip-path="url(#p35952cda14)" style="fill: none; stroke: #cccccc; stroke-width: 0.8; stroke-linecap: round"/>
                    </g>
                    <g id="text_10">
                        <!-- 100 -->
                        <g style="fill: #262626" transform="translate(192.317187 543.600519)scale(0.1 -0.1)">
                            <use xlink:href="#ArialMT-31"/>
                            <use xlink:href="#ArialMT-30" x="55.615234"/>
                            <use xlink:href="#ArialMT-30" x="111.230469"/>
                        </g>
                    </g>
                </g>
                <g id="ytick_3">
                    <g id="line2d_11">
                        <path d="M 216 473.420289
L 1555.2 473.420289 
" clip-path="url(#p35952cda14)" style="fill: none; stroke: #cccccc; stroke-width: 0.8; stroke-linecap: round"/>
                    </g>
                    <g id="text_11">
                        <!-- 200 -->
                        <g style="fill: #262626" transform="translate(192.317187 476.999195)scale(0.1 -0.1)">
                            <use xlink:href="#ArialMT-32"/>
                            <use xlink:href="#ArialMT-30" x="55.615234"/>
                            <use xlink:href="#ArialMT-30" x="111.230469"/>
                        </g>
                    </g>
                </g>
                <g id="ytick_4">
                    <g id="line2d_12">
                        <path d="M 216 406.818966
L 1555.2 406.818966 
" clip-path="url(#p35952cda14)" style="fill: none; stroke: #cccccc; stroke-width: 0.8; stroke-linecap: round"/>
                    </g>
                    <g id="text_12">
                        <!-- 300 -->
                        <g style="fill: #262626" transform="translate(192.317187 410.397872)scale(0.1 -0.1)">
                            <use xlink:href="#ArialMT-33"/>
                            <use xlink:href="#ArialMT-30" x="55.615234"/>
                            <use xlink:href="#ArialMT-30" x="111.230469"/>
                        </g>
                    </g>
                </g>
                <g id="ytick_5">
                    <g id="line2d_13">
                        <path d="M 216 340.217643
L 1555.2 340.217643 
" clip-path="url(#p35952cda14)" style="fill: none; stroke: #cccccc; stroke-width: 0.8; stroke-linecap: round"/>
                    </g>
                    <g id="text_13">
                        <!-- 400 -->
                        <g style="fill: #262626" transform="translate(192.317187 343.796549)scale(0.1 -0.1)">
                            <defs>
                                <path id="ArialMT-34" d="M 2069 0
L 2069 1097 
L 81 1097 
L 81 1613 
L 2172 4581 
L 2631 4581 
L 2631 1613 
L 3250 1613 
L 3250 1097 
L 2631 1097 
L 2631 0 
L 2069 0 
z
M 2069 1613 
L 2069 3678 
L 634 1613 
L 2069 1613 
z
" transform="scale(0.015625)"/>
                            </defs>
                            <use xlink:href="#ArialMT-34"/>
                            <use xlink:href="#ArialMT-30" x="55.615234"/>
                            <use xlink:href="#ArialMT-30" x="111.230469"/>
                        </g>
                    </g>
                </g>
                <g id="ytick_6">
                    <g id="line2d_14">
                        <path d="M 216 273.61632
L 1555.2 273.61632 
" clip-path="url(#p35952cda14)" style="fill: none; stroke: #cccccc; stroke-width: 0.8; stroke-linecap: round"/>
                    </g>
                    <g id="text_14">
                        <!-- 500 -->
                        <g style="fill: #262626" transform="translate(192.317187 277.195226)scale(0.1 -0.1)">
                            <use xlink:href="#ArialMT-35"/>
                            <use xlink:href="#ArialMT-30" x="55.615234"/>
                            <use xlink:href="#ArialMT-30" x="111.230469"/>
                        </g>
                    </g>
                </g>
                <g id="ytick_7">
                    <g id="line2d_15">
                        <path d="M 216 207.014996
L 1555.2 207.014996 
" clip-path="url(#p35952cda14)" style="fill: none; stroke: #cccccc; stroke-width: 0.8; stroke-linecap: round"/>
                    </g>
                    <g id="text_15">
                        <!-- 600 -->
                        <g style="fill: #262626" transform="translate(192.317187 210.593903)scale(0.1 -0.1)">
                            <defs>
                                <path id="ArialMT-36" d="M 3184 3459
L 2625 3416 
Q 2550 3747 2413 3897 
Q 2184 4138 1850 4138 
Q 1581 4138 1378 3988 
Q 1113 3794 959 3422 
Q 806 3050 800 2363 
Q 1003 2672 1297 2822 
Q 1591 2972 1913 2972 
Q 2475 2972 2870 2558 
Q 3266 2144 3266 1488 
Q 3266 1056 3080 686 
Q 2894 316 2569 119 
Q 2244 -78 1831 -78 
Q 1128 -78 684 439 
Q 241 956 241 2144 
Q 241 3472 731 4075 
Q 1159 4600 1884 4600 
Q 2425 4600 2770 4297 
Q 3116 3994 3184 3459 
z
M 888 1484 
Q 888 1194 1011 928 
Q 1134 663 1356 523 
Q 1578 384 1822 384 
Q 2178 384 2434 671 
Q 2691 959 2691 1453 
Q 2691 1928 2437 2201 
Q 2184 2475 1800 2475 
Q 1419 2475 1153 2201 
Q 888 1928 888 1484 
z
" transform="scale(0.015625)"/>
                            </defs>
                            <use xlink:href="#ArialMT-36"/>
                            <use xlink:href="#ArialMT-30" x="55.615234"/>
                            <use xlink:href="#ArialMT-30" x="111.230469"/>
                        </g>
                    </g>
                </g>
                <g id="ytick_8">
                    <g id="line2d_16">
                        <path d="M 216 140.413673
L 1555.2 140.413673 
" clip-path="url(#p35952cda14)" style="fill: none; stroke: #cccccc; stroke-width: 0.8; stroke-linecap: round"/>
                    </g>
                    <g id="text_16">
                        <!-- 700 -->
                        <g style="fill: #262626" transform="translate(192.317187 143.992579)scale(0.1 -0.1)">
                            <defs>
                                <path id="ArialMT-37" d="M 303 3981
L 303 4522 
L 3269 4522 
L 3269 4084 
Q 2831 3619 2401 2847 
Q 1972 2075 1738 1259 
Q 1569 684 1522 0 
L 944 0 
Q 953 541 1156 1306 
Q 1359 2072 1739 2783 
Q 2119 3494 2547 3981 
L 303 3981 
z
" transform="scale(0.015625)"/>
                            </defs>
                            <use xlink:href="#ArialMT-37"/>
                            <use xlink:href="#ArialMT-30" x="55.615234"/>
                            <use xlink:href="#ArialMT-30" x="111.230469"/>
                        </g>
                    </g>
                </g>
            </g>
            <g id="line2d_17">
                <path d="M 280.208219 520.707229
L 283.543711 546.681745 
L 286.879203 554.00789 
L 290.214695 586.642539 
L 293.550187 569.326195 
L 296.885679 522.039255 
L 300.221171 466.760157 
L 303.556663 496.730752 
L 306.892154 556.671943 
L 310.227646 591.304631 
L 313.563138 592.636658 
L 316.89863 596.632737 
L 320.234122 556.671943 
L 323.569614 582.646459 
L 326.905106 512.71507 
L 330.240598 431.461456 
L 333.57609 418.807204 
L 336.911582 368.190198 
L 340.247073 364.194119 
L 343.582565 594.634697 
L 346.918057 583.312472 
L 350.253549 573.988287 
M 363.595517 407.484979 
L 366.931009 593.302671 
L 370.266501 593.968684 
L 373.601993 565.996128 
L 376.937484 550.011811 
L 380.272976 563.332075 
L 383.608468 565.330115 
L 386.94396 560.668023 
L 390.279452 538.023573 
L 393.614944 574.6543 
L 396.950436 572.656261 
L 400.285928 563.998089 
L 403.62142 488.07258 
L 406.956912 442.117667 
L 410.292403 595.966724 
L 413.627895 599.29679 
L 416.963387 595.300711 
L 420.298879 534.693506 
L 423.634371 372.852291 
L 426.969863 576.65234 
L 430.305355 509.385004 
L 433.640847 468.758197 
L 436.976339 573.322274 
L 440.311831 500.726832 
L 443.647323 470.090223 
L 446.982814 432.793482 
L 450.318306 504.056898 
L 453.653798 546.681745 
L 456.98929 418.141191 
L 460.324782 497.396765 
L 463.660274 571.990247 
L 466.995766 581.314433 
L 470.331258 522.705268 
L 473.66675 560.668023 
L 477.002242 539.355599 
L 480.337733 534.027493 
L 483.673225 541.353639 
L 487.008717 441.451654 
L 490.344209 593.968684 
L 493.679701 565.330115 
L 497.015193 556.00593 
L 500.350685 603.292869 
L 503.686177 575.986327 
L 507.021669 539.355599 
L 510.357161 464.762117 
L 513.692653 554.00789 
L 517.028144 581.980446 
L 520.363636 538.023573 
L 523.699128 565.996128 
L 527.03462 556.00593 
L 530.370112 559.335996 
L 533.705604 446.113747 
L 537.041096 484.742514 
L 540.376588 575.986327 
L 543.71208 550.011811 
L 547.047572 587.974565 
L 550.383064 560.002009 
L 553.718555 574.6543 
L 557.054047 564.664102 
L 560.389539 536.025533 
L 563.725031 579.316393 
L 567.060523 545.349718 
L 570.396015 414.811125 
M 577.066999 585.976525 
L 580.402491 588.640578 
L 583.737983 574.6543 
L 587.073474 484.076501 
L 590.408966 474.086302 
L 593.744458 586.642539 
L 597.07995 571.990247 
L 600.415442 542.019652 
L 603.750934 506.720951 
L 607.086426 546.015731 
L 610.421918 580.64842 
L 613.75741 548.679784 
L 617.092902 601.29483 
L 620.428394 540.021612 
L 623.763885 554.00789 
L 627.099377 450.109826 
L 630.434869 546.015731 
L 633.770361 469.42421 
L 637.105853 347.543788 
L 640.441345 533.36148 
L 643.776837 574.6543 
L 647.112329 583.978486 
L 650.447821 581.980446 
L 653.783313 576.65234 
L 657.118804 541.353639 
L 660.454296 599.962803 
L 663.789788 597.964764 
L 667.12528 590.638618 
L 670.460772 594.634697 
L 673.796264 588.640578 
L 677.131756 565.330115 
L 680.467248 556.671943 
L 683.80274 582.646459 
L 687.138232 528.033374 
L 690.473724 496.730752 
L 693.809215 595.966724 
L 697.144707 574.6543 
L 700.480199 573.322274 
L 703.815691 514.047096 
L 707.151183 518.709189 
L 710.486675 599.962803 
L 713.822167 573.988287 
L 717.157659 571.990247 
L 720.493151 566.662142 
L 723.828643 460.766038 
L 727.164134 535.35952 
L 730.499626 572.656261 
L 733.835118 549.345798 
L 737.17061 573.988287 
L 740.506102 565.996128 
L 743.841594 544.683705 
L 747.177086 454.105905 
L 750.512578 507.386964 
L 753.84807 540.021612 
L 757.183562 593.302671 
L 760.519054 575.320314 
L 763.854545 546.681745 
L 767.190037 546.681745 
L 770.525529 490.07062 
L 773.861021 584.644499 
L 777.196513 555.339917 
L 780.532005 480.746435 
M 787.202989 480.080421 
L 790.538481 554.00789 
M 810.551432 578.65038 
L 813.886924 548.013771 
L 817.222416 539.355599 
L 820.557908 597.964764 
L 823.8934 568.660181 
L 827.228892 506.054938 
L 830.564384 536.691546 
L 833.899875 584.644499 
L 837.235367 579.316393 
L 840.570859 560.002009 
L 843.906351 470.090223 
L 847.241843 565.996128 
L 850.577335 524.037295 
M 857.248319 570.658221 
L 860.583811 530.697427 
L 863.919303 480.080421 
L 867.254795 545.349718 
L 870.590286 532.695467 
L 873.925778 476.084342 
L 877.26127 481.412448 
L 880.596762 467.42617 
L 883.932254 575.986327 
L 887.267746 583.978486 
L 890.603238 554.00789 
L 893.93873 536.691546 
L 897.274222 565.330115 
L 900.609714 575.320314 
L 903.945205 571.990247 
L 907.280697 560.668023 
L 910.616189 585.976525 
L 913.951681 555.339917 
L 917.287173 497.396765 
L 920.622665 480.746435 
L 923.958157 525.369321 
L 930.629141 464.762117 
L 933.964633 573.322274 
L 937.300125 460.766038 
L 940.635616 508.71899 
L 943.971108 564.664102 
L 947.3066 575.320314 
L 950.642092 562.000049 
L 953.977584 480.746435 
L 957.313076 550.677824 
L 960.648568 496.730752 
L 963.98406 499.394805 
L 967.319552 488.07258 
L 970.655044 505.388924 
L 973.990535 500.726832 
L 977.326027 442.78368 
L 980.661519 483.410488 
L 983.997011 577.318353 
L 987.332503 550.011811 
L 990.667995 557.337956 
L 994.003487 474.752316 
L 997.338979 576.65234 
L 1000.674471 599.29679 
L 1004.009963 565.330115 
L 1007.345455 576.65234 
L 1010.680946 459.434011 
L 1014.016438 382.84249 
L 1017.35193 485.408527 
L 1020.687422 551.343837 
L 1024.022914 540.021612 
M 1037.364882 556.00593 
L 1040.700374 474.086302 
L 1044.035866 537.357559 
L 1047.371357 476.750355 
L 1050.706849 576.65234 
L 1054.042341 600.628816 
L 1057.377833 573.988287 
L 1060.713325 482.744474 
L 1064.048817 565.996128 
L 1067.384309 525.369321 
L 1070.719801 584.644499 
L 1074.055293 577.318353 
L 1077.390785 518.709189 
L 1080.726276 538.689586 
L 1084.061768 529.365401 
L 1090.732752 552.009851 
L 1094.068244 437.455575 
L 1097.403736 503.390885 
L 1100.739228 532.029454 
L 1104.07472 520.707229 
L 1107.410212 456.103945 
L 1110.745704 538.023573 
L 1114.081196 530.031414 
L 1117.416687 490.07062 
L 1120.752179 490.736633 
L 1124.087671 558.669983 
L 1127.423163 512.049057 
L 1130.758655 467.42617 
L 1134.094147 392.832688 
L 1137.429639 471.422249 
L 1140.765131 528.699387 
L 1144.100623 589.306592 
L 1147.436115 583.978486 
L 1150.771606 550.677824 
L 1154.107098 587.974565 
M 1187.462017 452.773879 
L 1190.797509 494.732713 
L 1194.133001 598.630777 
L 1197.468493 600.628816 
L 1200.803985 550.011811 
L 1204.139477 469.42421 
L 1207.474969 270.286253 
L 1210.810461 320.903259 
L 1214.145953 413.479098 
L 1217.481445 317.573193 
L 1220.816936 585.310512 
L 1224.152428 581.980446 
L 1227.48792 494.732713 
L 1230.823412 579.316393 
L 1234.158904 593.968684 
L 1237.494396 532.695467 
L 1240.829888 591.304631 
L 1244.16538 552.675864 
L 1247.500872 578.65038 
L 1250.836364 551.343837 
L 1254.171856 548.013771 
L 1257.507347 484.076501 
L 1260.842839 488.07258 
L 1264.178331 432.127469 
L 1267.513823 598.630777 
L 1270.849315 601.29483 
L 1274.184807 579.316393 
L 1277.520299 489.404607 
L 1280.855791 575.320314 
L 1284.191283 571.990247 
L 1287.526775 539.355599 
L 1290.862267 550.677824 
M 1300.868742 522.039255 
L 1304.204234 510.71703 
L 1307.539726 448.111786 
L 1310.875218 296.260769 
L 1314.21071 594.634697 
L 1317.546202 592.636658 
L 1320.881694 510.71703 
L 1324.217186 464.762117 
L 1327.552677 601.29483 
L 1330.888169 578.65038 
L 1334.223661 595.300711 
L 1337.559153 599.962803 
L 1340.894645 496.064739 
L 1344.230137 430.795442 
L 1347.565629 259.630042 
L 1350.901121 250.305856 
L 1354.236613 304.252928 
L 1357.572105 318.239206 
L 1360.907597 593.968684 
L 1364.243088 454.771919 
L 1367.57858 436.123548 
L 1370.914072 595.966724 
L 1374.249564 512.049057 
L 1377.585056 577.984367 
L 1380.920548 575.320314 
L 1384.25604 311.579074 
L 1387.591532 449.443813 
L 1390.927024 434.125508 
L 1394.262516 426.799363 
L 1397.598007 596.632737 
L 1400.933499 478.082382 
L 1404.268991 392.166675 
L 1407.604483 599.29679 
L 1410.939975 565.996128 
L 1414.275467 544.683705 
L 1417.610959 529.365401 
L 1420.946451 453.439892 
L 1424.281943 595.300711 
L 1427.617435 534.027493 
L 1430.952927 513.381083 
L 1434.288418 595.966724 
L 1437.62391 599.29679 
L 1440.959402 593.302671 
L 1444.294894 569.992208 
L 1447.630386 357.533987 
L 1450.965878 254.967949 
L 1454.30137 499.394805 
L 1457.636862 333.55751 
L 1460.972354 226.995393 
L 1464.307846 599.962803 
L 1467.643337 585.310512 
L 1470.978829 516.711149 
L 1474.314321 498.062779 
L 1477.649813 552.675864 
L 1480.985305 595.966724 
L 1484.320797 558.00397 
L 1487.656289 595.300711 
L 1490.991781 593.302671 
L 1490.991781 593.302671 
" clip-path="url(#p35952cda14)" style="fill: none; stroke: #ff0000; stroke-width: 1.5; stroke-linecap: round"/>
            </g>
            <g id="line2d_18">
                <path d="M 280.208219 582.646459
L 283.543711 563.332075 
L 286.879203 451.441852 
L 290.214695 587.974565 
L 293.550187 597.964764 
L 296.885679 594.634697 
L 300.221171 526.701348 
M 310.227646 536.691546 
L 313.563138 576.65234 
L 316.89863 510.71703 
L 320.234122 588.640578 
L 323.569614 599.29679 
L 326.905106 587.308552 
L 330.240598 535.35952 
L 333.57609 598.630777 
L 336.911582 591.970644 
L 340.247073 595.300711 
L 343.582565 524.037295 
L 346.918057 479.414408 
L 350.253549 599.29679 
L 353.589041 600.628816 
L 356.924533 534.027493 
L 360.260025 583.978486 
L 363.595517 521.373242 
L 366.931009 585.310512 
L 370.266501 604.624896 
L 373.601993 592.636658 
L 376.937484 592.636658 
L 380.272976 584.644499 
L 383.608468 550.677824 
L 386.94396 556.671943 
L 390.279452 407.484979 
L 393.614944 577.984367 
L 396.950436 460.100025 
L 400.285928 544.683705 
L 403.62142 468.092183 
L 406.956912 550.677824 
L 410.292403 585.976525 
L 413.627895 535.35952 
L 416.963387 601.960843 
L 420.298879 573.322274 
L 423.634371 599.29679 
L 426.969863 538.689586 
L 430.305355 383.508503 
L 433.640847 410.815045 
L 436.976339 332.891497 
L 440.311831 430.795442 
L 443.647323 414.811125 
L 446.982814 255.633962 
L 450.318306 274.282333 
L 453.653798 340.883656 
L 456.98929 328.229405 
L 460.324782 569.992208 
L 463.660274 578.65038 
L 466.995766 523.371282 
L 470.331258 589.972605 
L 473.66675 598.630777 
L 477.002242 600.628816 
L 480.337733 600.628816 
L 483.673225 577.984367 
L 487.008717 560.668023 
L 490.344209 569.992208 
M 503.686177 562.666062 
L 507.021669 574.6543 
L 510.357161 431.461456 
L 513.692653 354.203921 
L 517.028144 601.29483 
L 520.363636 595.966724 
L 523.699128 594.634697 
L 527.03462 536.691546 
M 543.71208 595.300711 
L 547.047572 586.642539 
M 553.718555 601.29483 
L 557.054047 582.646459 
L 560.389539 593.302671 
L 563.725031 577.984367 
L 567.060523 560.668023 
L 570.396015 556.671943 
L 573.731507 508.052977 
M 583.737983 554.00789 
L 587.073474 563.332075 
L 590.408966 509.385004 
L 593.744458 460.100025 
M 613.75741 572.656261 
L 617.092902 476.084342 
L 620.428394 498.062779 
L 623.763885 571.324234 
L 627.099377 582.646459 
M 637.105853 569.326195 
L 640.441345 552.009851 
L 643.776837 490.07062 
L 647.112329 557.337956 
L 650.447821 573.988287 
M 660.454296 538.023573 
L 663.789788 554.00789 
L 667.12528 565.996128 
L 670.460772 496.730752 
L 673.796264 488.07258 
L 677.131756 497.396765 
L 680.467248 581.314433 
L 683.80274 597.964764 
L 687.138232 561.334036 
L 690.473724 541.353639 
L 693.809215 542.019652 
L 697.144707 579.982406 
L 700.480199 560.668023 
L 703.815691 556.00593 
L 707.151183 585.976525 
L 710.486675 553.341877 
L 713.822167 572.656261 
L 717.157659 588.640578 
L 720.493151 577.318353 
L 723.828643 571.324234 
L 727.164134 561.334036 
L 730.499626 576.65234 
L 733.835118 430.795442 
L 737.17061 601.960843 
L 740.506102 587.974565 
L 743.841594 589.306592 
L 747.177086 582.646459 
L 750.512578 558.00397 
L 753.84807 571.324234 
L 757.183562 554.673903 
L 760.519054 548.013771 
M 767.190037 504.722911 
L 770.525529 540.687626 
L 773.861021 542.685665 
L 777.196513 587.308552 
L 780.532005 598.630777 
L 783.867497 584.644499 
L 787.202989 560.668023 
L 790.538481 571.324234 
L 793.873973 587.974565 
L 797.209465 556.671943 
L 800.544956 498.062779 
L 803.880448 562.666062 
L 807.21594 571.324234 
L 810.551432 526.035334 
L 813.886924 542.685665 
L 817.222416 593.302671 
L 820.557908 571.990247 
L 823.8934 518.709189 
L 827.228892 570.658221 
L 830.564384 504.056898 
L 833.899875 530.031414 
L 837.235367 506.054938 
L 840.570859 459.434011 
L 843.906351 458.767998 
L 847.241843 474.086302 
L 850.577335 496.064739 
L 853.912827 514.047096 
L 857.248319 573.988287 
L 860.583811 572.656261 
L 863.919303 538.689586 
L 867.254795 558.669983 
L 870.590286 534.693506 
L 873.925778 488.738593 
L 877.26127 429.463416 
L 880.596762 443.449694 
L 883.932254 518.043176 
L 887.267746 472.088263 
L 890.603238 558.669983 
L 893.93873 563.332075 
L 897.274222 505.388924 
L 900.609714 562.666062 
L 903.945205 592.636658 
L 907.280697 594.634697 
L 910.616189 578.65038 
L 913.951681 509.385004 
L 917.287173 532.029454 
L 920.622665 526.701348 
L 923.958157 553.341877 
L 927.293649 577.318353 
L 930.629141 558.669983 
L 933.964633 574.6543 
L 937.300125 528.699387 
L 940.635616 496.730752 
L 943.971108 572.656261 
L 947.3066 540.021612 
L 950.642092 544.017692 
L 953.977584 432.793482 
L 957.313076 366.192159 
L 960.648568 593.302671 
L 963.98406 550.011811 
L 967.319552 585.310512 
L 970.655044 529.365401 
L 973.990535 416.143151 
L 977.326027 580.64842 
L 980.661519 565.996128 
M 994.003487 550.011811 
L 997.338979 528.033374 
L 1000.674471 530.697427 
L 1004.009963 536.691546 
M 1017.35193 557.337956 
L 1020.687422 524.703308 
L 1024.022914 531.36344 
L 1027.358406 523.371282 
L 1030.693898 496.730752 
L 1034.02939 599.962803 
L 1037.364882 576.65234 
L 1040.700374 595.966724 
L 1044.035866 574.6543 
L 1047.371357 562.000049 
L 1050.706849 566.662142 
L 1054.042341 537.357559 
L 1057.377833 520.041215 
L 1060.713325 545.349718 
L 1064.048817 548.679784 
L 1067.384309 526.035334 
L 1070.719801 528.033374 
L 1074.055293 554.673903 
L 1077.390785 563.332075 
L 1080.726276 472.088263 
L 1084.061768 478.082382 
L 1087.39726 420.139231 
L 1090.732752 580.64842 
L 1094.068244 575.320314 
L 1097.403736 494.066699 
L 1100.739228 558.00397 
L 1104.07472 573.988287 
L 1107.410212 476.750355 
L 1110.745704 553.341877 
L 1114.081196 577.984367 
L 1117.416687 574.6543 
L 1120.752179 583.312472 
L 1124.087671 561.334036 
L 1127.423163 534.693506 
L 1130.758655 512.049057 
L 1134.094147 470.756236 
L 1137.429639 582.646459 
L 1140.765131 589.972605 
L 1144.100623 573.988287 
L 1147.436115 574.6543 
L 1150.771606 563.998089 
L 1154.107098 568.660181 
L 1157.44259 545.349718 
L 1160.778082 497.396765 
L 1164.113574 455.437932 
L 1167.449066 486.074541 
L 1170.784558 407.484979 
L 1174.12005 500.726832 
L 1177.455542 488.738593 
L 1180.791034 380.84445 
L 1184.126526 593.968684 
L 1187.462017 565.330115 
L 1190.797509 593.968684 
L 1194.133001 564.664102 
M 1210.810461 497.396765 
L 1214.145953 372.852291 
L 1217.481445 418.141191 
L 1220.816936 578.65038 
L 1224.152428 465.42813 
L 1227.48792 456.769958 
L 1230.823412 591.304631 
L 1234.158904 600.628816 
L 1240.829888 591.304631 
L 1247.500872 512.71507 
L 1250.836364 420.139231 
L 1254.171856 408.150992 
L 1257.507347 394.830728 
L 1260.842839 320.237246 
L 1264.178331 601.960843 
L 1267.513823 601.29483 
L 1270.849315 522.039255 
M 1280.855791 382.84249 
L 1284.191283 373.518304 
L 1287.526775 435.457535 
L 1290.862267 429.463416 
L 1294.197758 581.314433 
L 1297.53325 588.640578 
L 1300.868742 538.689586 
L 1304.204234 581.314433 
L 1307.539726 550.011811 
L 1310.875218 532.695467 
L 1314.21071 522.039255 
L 1317.546202 563.332075 
L 1320.881694 550.677824 
L 1324.217186 516.711149 
L 1327.552677 422.13727 
L 1330.888169 592.636658 
L 1334.223661 544.683705 
L 1337.559153 397.494781 
L 1340.894645 469.42421 
L 1344.230137 522.039255 
L 1347.565629 514.047096 
L 1350.901121 546.681745 
L 1354.236613 600.628816 
L 1357.572105 456.103945 
L 1360.907597 353.537907 
L 1364.243088 602.626856 
L 1367.57858 546.015731 
L 1370.914072 403.4889 
L 1374.249564 382.176476 
L 1377.585056 386.838569 
L 1380.920548 365.526146 
L 1384.25604 579.982406 
L 1387.591532 522.039255 
L 1390.927024 523.371282 
L 1394.262516 444.78172 
L 1397.598007 291.598677 
L 1400.933499 478.082382 
L 1404.268991 363.528106 
L 1407.604483 456.103945 
L 1410.939975 380.178437 
L 1414.275467 598.630777 
L 1417.610959 601.960843 
L 1420.946451 594.634697 
L 1424.281943 558.00397 
L 1427.617435 573.322274 
L 1430.952927 552.009851 
L 1434.288418 595.966724 
L 1437.62391 595.966724 
L 1440.959402 596.632737 
L 1444.294894 542.685665 
L 1447.630386 532.695467 
L 1450.965878 563.998089 
L 1454.30137 483.410488 
L 1457.636862 540.021612 
L 1460.972354 593.968684 
L 1464.307846 543.351679 
L 1467.643337 599.29679 
L 1470.978829 536.691546 
L 1474.314321 555.339917 
L 1477.649813 388.836609 
L 1480.985305 384.840529 
L 1484.320797 565.330115 
L 1487.656289 559.335996 
L 1490.991781 498.062779 
L 1490.991781 498.062779 
" clip-path="url(#p35952cda14)" style="fill: none; stroke: #0000ff; stroke-width: 1.5; stroke-linecap: round"/>
            </g>
            <g id="line2d_19">
                <path d="M 276.872727 423.469297
L 280.208219 530.697427 
L 283.543711 597.29875 
L 286.879203 597.29875 
L 290.214695 546.681745 
L 293.550187 480.746435 
L 296.885679 576.65234 
L 300.221171 492.734673 
L 303.556663 414.145111 
L 306.892154 362.862093 
L 310.227646 595.300711 
L 313.563138 514.71311 
L 316.89863 540.021612 
L 320.234122 515.379123 
M 333.57609 385.506543 
L 336.911582 315.575153 
L 340.247073 287.602597 
L 343.582565 595.300711 
L 346.918057 592.636658 
L 350.253549 456.769958 
L 353.589041 554.00789 
L 356.924533 584.644499 
L 360.260025 489.404607 
L 363.595517 531.36344 
L 366.931009 557.337956 
L 370.266501 493.400686 
L 373.601993 546.015731 
L 376.937484 518.709189 
L 380.272976 596.632737 
L 383.608468 590.638618 
L 386.94396 563.998089 
L 390.279452 597.29875 
L 393.614944 528.033374 
L 396.950436 437.455575 
L 400.285928 498.062779 
L 403.62142 599.29679 
L 406.956912 594.634697 
L 410.292403 602.626856 
L 413.627895 557.337956 
L 416.963387 490.07062 
L 420.298879 493.400686 
L 423.634371 356.20196 
L 426.969863 553.341877 
L 430.305355 603.958883 
L 433.640847 601.960843 
L 436.976339 597.29875 
L 440.311831 534.027493 
L 443.647323 563.332075 
L 446.982814 544.683705 
L 450.318306 512.71507 
L 453.653798 595.966724 
L 456.98929 550.677824 
L 460.324782 600.628816 
L 463.660274 565.330115 
L 466.995766 514.047096 
L 470.331258 428.797403 
L 473.66675 490.07062 
L 477.002242 392.166675 
L 480.337733 427.465376 
L 483.673225 520.041215 
L 487.008717 534.693506 
L 490.344209 472.754276 
L 493.679701 587.974565 
L 497.015193 575.320314 
L 500.350685 598.630777 
L 503.686177 594.634697 
L 507.021669 547.347758 
L 510.357161 603.958883 
L 513.692653 558.669983 
L 517.028144 536.025533 
L 520.363636 599.962803 
L 523.699128 559.335996 
L 527.03462 486.740554 
L 530.370112 420.139231 
L 533.705604 531.36344 
L 537.041096 560.668023 
L 540.376588 523.371282 
L 543.71208 482.078461 
L 547.047572 335.55555 
L 550.383064 581.980446 
L 553.718555 597.29875 
L 557.054047 585.976525 
L 560.389539 528.033374 
L 563.725031 420.139231 
L 567.060523 528.699387 
L 570.396015 575.320314 
L 573.731507 596.632737 
L 577.066999 579.982406 
L 580.402491 580.64842 
L 583.737983 587.974565 
L 587.073474 599.29679 
L 590.408966 594.634697 
L 593.744458 593.968684 
L 597.07995 596.632737 
L 600.415442 594.634697 
L 603.750934 500.060818 
L 607.086426 564.664102 
L 610.421918 552.675864 
L 613.75741 581.980446 
L 617.092902 576.65234 
L 620.428394 572.656261 
L 623.763885 573.322274 
L 627.099377 554.00789 
L 630.434869 569.326195 
L 633.770361 560.002009 
L 637.105853 536.691546 
L 640.441345 573.322274 
L 643.776837 497.396765 
L 647.112329 520.707229 
L 650.447821 506.720951 
L 653.783313 462.098064 
L 657.118804 502.058858 
L 660.454296 597.964764 
L 663.789788 576.65234 
L 667.12528 511.383043 
L 670.460772 579.316393 
L 673.796264 471.422249 
L 677.131756 526.035334 
L 680.467248 428.797403 
L 683.80274 557.337956 
L 687.138232 522.705268 
L 690.473724 540.687626 
L 693.809215 573.322274 
L 697.144707 561.334036 
L 700.480199 568.660181 
L 703.815691 559.335996 
L 707.151183 559.335996 
L 710.486675 508.052977 
L 713.822167 442.117667 
L 717.157659 514.71311 
L 720.493151 520.041215 
L 723.828643 542.685665 
L 727.164134 577.984367 
L 730.499626 579.982406 
L 733.835118 581.314433 
L 737.17061 583.978486 
L 740.506102 509.385004 
M 750.512578 493.400686 
L 753.84807 518.709189 
L 757.183562 572.656261 
L 760.519054 560.668023 
L 763.854545 540.687626 
L 767.190037 570.658221 
L 770.525529 524.037295 
L 773.861021 544.017692 
L 777.196513 599.29679 
L 780.532005 561.334036 
L 783.867497 573.322274 
L 787.202989 511.383043 
L 790.538481 500.726832 
L 793.873973 543.351679 
L 797.209465 560.668023 
L 800.544956 474.086302 
L 803.880448 574.6543 
L 807.21594 595.300711 
L 810.551432 559.335996 
L 813.886924 575.320314 
L 817.222416 589.306592 
L 820.557908 566.662142 
L 823.8934 599.29679 
L 827.228892 595.300711 
L 830.564384 599.29679 
L 833.899875 595.966724 
L 837.235367 583.312472 
L 840.570859 539.355599 
L 843.906351 434.125508 
L 847.241843 422.13727 
L 850.577335 483.410488 
M 857.248319 522.039255 
L 860.583811 482.744474 
L 863.919303 556.671943 
L 867.254795 563.998089 
L 870.590286 574.6543 
L 873.925778 583.978486 
L 877.26127 520.707229 
L 880.596762 533.36148 
L 883.932254 555.339917 
L 887.267746 473.420289 
L 890.603238 584.644499 
L 893.93873 530.031414 
L 897.274222 555.339917 
L 900.609714 583.978486 
L 903.945205 484.076501 
L 907.280697 492.734673 
L 910.616189 530.031414 
L 913.951681 565.330115 
L 917.287173 589.972605 
L 920.622665 587.974565 
L 923.958157 587.308552 
L 930.629141 564.664102 
L 933.964633 566.662142 
L 937.300125 566.662142 
L 940.635616 547.347758 
L 943.971108 552.009851 
L 950.642092 446.77976 
L 953.977584 587.974565 
L 957.313076 588.640578 
L 960.648568 588.640578 
L 963.98406 534.027493 
L 967.319552 558.00397 
M 983.997011 581.314433 
L 987.332503 600.628816 
L 990.667995 594.634697 
L 994.003487 560.668023 
L 997.338979 587.974565 
L 1000.674471 585.310512 
L 1004.009963 558.00397 
L 1007.345455 568.660181 
L 1010.680946 547.347758 
L 1014.016438 585.976525 
L 1017.35193 581.980446 
L 1020.687422 550.011811 
M 1034.02939 574.6543 
L 1037.364882 546.015731 
L 1040.700374 560.002009 
L 1044.035866 469.42421 
M 1057.377833 582.646459 
L 1060.713325 579.982406 
L 1064.048817 562.666062 
L 1067.384309 546.681745 
L 1070.719801 526.701348 
L 1074.055293 523.371282 
L 1077.390785 561.334036 
L 1080.726276 504.056898 
L 1084.061768 443.449694 
L 1087.39726 477.416369 
L 1090.732752 476.084342 
L 1094.068244 534.027493 
L 1097.403736 601.960843 
L 1100.739228 599.962803 
L 1104.07472 583.978486 
L 1107.410212 580.64842 
L 1110.745704 511.383043 
L 1114.081196 577.318353 
L 1117.416687 550.677824 
L 1120.752179 522.705268 
L 1124.087671 534.693506 
L 1127.423163 565.330115 
L 1130.758655 599.962803 
L 1134.094147 599.29679 
L 1137.429639 591.304631 
L 1140.765131 561.334036 
L 1144.100623 563.998089 
L 1147.436115 567.328155 
L 1150.771606 587.308552 
L 1154.107098 500.726832 
L 1157.44259 496.064739 
L 1160.778082 573.322274 
L 1164.113574 521.373242 
L 1167.449066 567.994168 
L 1170.784558 575.986327 
L 1174.12005 594.634697 
L 1177.455542 573.988287 
L 1180.791034 604.624896 
L 1184.126526 605.290909 
L 1187.462017 592.636658 
L 1190.797509 579.316393 
L 1194.133001 542.019652 
L 1197.468493 427.465376 
L 1200.803985 600.628816 
L 1204.139477 588.640578 
L 1207.474969 480.746435 
L 1210.810461 510.051017 
L 1214.145953 480.746435 
L 1217.481445 309.581034 
L 1220.816936 605.290909 
L 1224.152428 553.341877 
L 1227.48792 488.738593 
L 1230.823412 436.123548 
L 1234.158904 567.994168 
L 1237.494396 524.703308 
L 1240.829888 542.685665 
L 1244.16538 601.960843 
L 1247.500872 552.009851 
L 1250.836364 512.049057 
L 1254.171856 390.834648 
L 1257.507347 579.982406 
L 1260.842839 579.316393 
L 1264.178331 582.646459 
L 1267.513823 488.738593 
L 1270.849315 490.736633 
L 1274.184807 411.481059 
L 1277.520299 404.154913 
L 1280.855791 599.29679 
L 1284.191283 579.982406 
L 1287.526775 601.29483 
L 1290.862267 601.960843 
L 1294.197758 524.037295 
L 1297.53325 502.058858 
L 1300.868742 454.771919 
L 1304.204234 597.29875 
L 1307.539726 589.972605 
L 1310.875218 580.64842 
L 1314.21071 540.687626 
L 1317.546202 579.982406 
L 1320.881694 527.367361 
L 1324.217186 518.709189 
L 1327.552677 599.962803 
L 1330.888169 599.962803 
L 1334.223661 600.628816 
L 1337.559153 595.300711 
L 1340.894645 510.71703 
L 1344.230137 520.707229 
L 1347.565629 595.300711 
L 1350.901121 487.406567 
L 1354.236613 599.29679 
M 1360.907597 507.386964 
L 1364.243088 337.55359 
L 1367.57858 596.632737 
L 1370.914072 536.025533 
L 1374.249564 389.502622 
L 1377.585056 591.304631 
L 1380.920548 541.353639 
L 1384.25604 564.664102 
L 1387.591532 577.318353 
L 1390.927024 495.398726 
L 1394.262516 579.316393 
L 1397.598007 521.373242 
L 1400.933499 392.166675 
L 1404.268991 582.646459 
L 1407.604483 583.978486 
L 1410.939975 589.306592 
L 1414.275467 507.386964 
L 1417.610959 595.966724 
L 1420.946451 596.632737 
L 1424.281943 581.980446 
L 1427.617435 487.406567 
L 1430.952927 504.056898 
L 1434.288418 428.131389 
L 1437.62391 470.090223 
L 1440.959402 478.748395 
L 1444.294894 383.508503 
L 1447.630386 508.71899 
L 1450.965878 595.300711 
L 1454.30137 544.683705 
L 1457.636862 444.115707 
L 1460.972354 396.828767 
L 1464.307846 595.966724 
L 1467.643337 598.630777 
M 1487.656289 417.475178 
L 1490.991781 600.628816 
L 1494.327273 542.019652 
L 1494.327273 542.019652 
" clip-path="url(#p35952cda14)" style="fill: none; stroke: #008000; stroke-width: 1.5; stroke-linecap: round"/>
            </g>
            <g id="line2d_20">
                <path d="M 276.872727 583.312472
L 280.208219 593.968684 
L 283.543711 591.304631 
L 286.879203 581.980446 
L 290.214695 474.752316 
L 293.550187 558.669983 
L 296.885679 416.809164 
L 300.221171 384.840529 
L 303.556663 591.304631 
L 306.892154 403.4889 
L 310.227646 317.573193 
L 313.563138 357.533987 
L 316.89863 111.109091 
L 320.234122 400.824847 
L 323.569614 506.054938 
L 326.905106 488.738593 
L 330.240598 586.642539 
L 333.57609 416.809164 
L 336.911582 332.225484 
L 340.247073 548.013771 
L 343.582565 499.394805 
L 346.918057 537.357559 
L 350.253549 304.918941 
L 353.589041 436.789561 
L 356.924533 588.640578 
L 360.260025 516.711149 
L 363.595517 454.105905 
L 366.931009 380.178437 
L 370.266501 268.288214 
L 373.601993 396.162754 
L 376.937484 399.49282 
L 380.272976 524.703308 
L 383.608468 597.29875 
L 390.279452 463.430091 
L 393.614944 544.017692 
L 396.950436 502.724871 
L 400.285928 600.628816 
L 403.62142 596.632737 
L 406.956912 534.693506 
L 410.292403 559.335996 
L 413.627895 569.992208 
L 416.963387 562.000049 
L 420.298879 475.418329 
L 423.634371 345.545749 
L 426.969863 574.6543 
L 430.305355 562.666062 
L 433.640847 426.13335 
L 436.976339 593.968684 
L 440.311831 600.628816 
L 443.647323 555.339917 
L 446.982814 553.341877 
L 450.318306 380.84445 
L 453.653798 544.017692 
L 456.98929 322.901299 
L 460.324782 446.77976 
L 463.660274 503.390885 
L 466.995766 330.227444 
L 470.331258 362.196079 
L 473.66675 600.628816 
L 477.002242 599.962803 
L 480.337733 502.058858 
L 483.673225 560.668023 
L 487.008717 553.341877 
L 490.344209 405.486939 
L 493.679701 445.447733 
L 497.015193 306.916981 
L 500.350685 548.679784 
L 503.686177 598.630777 
L 507.021669 552.675864 
L 510.357161 530.697427 
L 513.692653 562.000049 
L 517.028144 559.335996 
L 520.363636 485.408527 
L 523.699128 336.887577 
L 527.03462 470.756236 
L 530.370112 274.948346 
L 533.705604 586.642539 
L 537.041096 556.671943 
L 540.376588 528.033374 
L 543.71208 467.42617 
L 547.047572 570.658221 
L 550.383064 600.628816 
L 553.718555 559.335996 
L 557.054047 541.353639 
L 560.389539 521.373242 
L 563.725031 595.966724 
L 567.060523 533.36148 
L 570.396015 566.662142 
L 573.731507 535.35952 
L 577.066999 444.115707 
L 580.402491 602.626856 
L 583.737983 514.71311 
L 587.073474 581.314433 
L 590.408966 525.369321 
L 593.744458 601.29483 
L 597.07995 582.646459 
L 600.415442 570.658221 
L 603.750934 598.630777 
L 607.086426 599.962803 
L 613.75741 585.310512 
L 617.092902 567.328155 
L 620.428394 601.29483 
L 623.763885 567.328155 
L 627.099377 573.322274 
L 630.434869 568.660181 
L 633.770361 580.64842 
L 637.105853 579.316393 
L 640.441345 562.000049 
L 643.776837 536.691546 
L 647.112329 537.357559 
L 650.447821 505.388924 
L 653.783313 457.435972 
L 657.118804 602.626856 
L 660.454296 543.351679 
L 663.789788 576.65234 
L 667.12528 538.023573 
L 670.460772 599.29679 
L 673.796264 552.675864 
L 677.131756 581.314433 
L 680.467248 559.335996 
L 683.80274 567.328155 
L 687.138232 549.345798 
L 690.473724 537.357559 
L 693.809215 417.475178 
L 697.144707 499.394805 
L 700.480199 476.084342 
L 703.815691 578.65038 
L 707.151183 558.00397 
L 710.486675 575.320314 
L 713.822167 589.972605 
L 717.157659 583.312472 
L 720.493151 430.795442 
L 723.828643 562.000049 
L 727.164134 579.982406 
L 730.499626 562.666062 
M 737.17061 581.980446 
L 740.506102 588.640578 
L 743.841594 556.00593 
L 747.177086 563.332075 
L 750.512578 581.314433 
L 753.84807 497.396765 
L 757.183562 583.312472 
L 760.519054 549.345798 
L 763.854545 575.320314 
L 767.190037 545.349718 
L 770.525529 562.000049 
L 773.861021 579.982406 
L 777.196513 571.990247 
L 780.532005 536.691546 
L 783.867497 569.326195 
L 787.202989 504.722911 
L 790.538481 496.064739 
L 793.873973 556.00593 
L 797.209465 490.07062 
L 800.544956 509.385004 
L 803.880448 514.047096 
L 807.21594 492.06866 
L 810.551432 584.644499 
L 813.886924 579.982406 
L 817.222416 591.970644 
L 820.557908 544.683705 
L 823.8934 553.341877 
L 827.228892 538.023573 
L 830.564384 508.052977 
L 833.899875 498.062779 
L 837.235367 573.988287 
L 840.570859 549.345798 
L 843.906351 563.998089 
L 847.241843 538.689586 
L 850.577335 578.65038 
L 853.912827 568.660181 
L 857.248319 548.013771 
L 860.583811 574.6543 
L 863.919303 492.734673 
L 867.254795 422.13727 
L 870.590286 484.076501 
L 873.925778 589.972605 
L 877.26127 482.744474 
L 880.596762 503.390885 
L 883.932254 579.316393 
L 887.267746 590.638618 
L 890.603238 576.65234 
L 893.93873 585.310512 
L 897.274222 580.64842 
L 900.609714 583.312472 
L 903.945205 462.764077 
L 907.280697 506.720951 
L 910.616189 580.64842 
L 913.951681 585.310512 
L 917.287173 565.330115 
L 920.622665 526.701348 
L 923.958157 544.017692 
L 927.293649 554.673903 
L 930.629141 569.326195 
L 933.964633 581.314433 
L 937.300125 558.669983 
L 940.635616 544.683705 
L 943.971108 527.367361 
L 947.3066 534.027493 
L 950.642092 565.996128 
L 953.977584 560.002009 
L 957.313076 567.994168 
L 960.648568 581.314433 
L 963.98406 577.984367 
L 967.319552 557.337956 
L 970.655044 492.734673 
L 973.990535 582.646459 
L 977.326027 536.025533 
L 980.661519 556.00593 
L 983.997011 582.646459 
L 987.332503 556.00593 
L 990.667995 585.310512 
L 994.003487 556.00593 
L 997.338979 585.976525 
L 1000.674471 569.992208 
L 1004.009963 506.054938 
L 1007.345455 592.636658 
L 1010.680946 586.642539 
L 1014.016438 565.996128 
L 1017.35193 557.337956 
L 1020.687422 568.660181 
L 1024.022914 552.009851 
L 1027.358406 573.988287 
L 1030.693898 568.660181 
L 1034.02939 487.406567 
L 1037.364882 503.390885 
L 1040.700374 595.966724 
M 1054.042341 536.025533 
L 1057.377833 533.36148 
L 1060.713325 577.318353 
L 1064.048817 560.002009 
L 1067.384309 572.656261 
L 1070.719801 567.328155 
L 1074.055293 584.644499 
L 1077.390785 524.037295 
L 1080.726276 597.29875 
L 1084.061768 583.978486 
L 1087.39726 569.992208 
L 1090.732752 559.335996 
L 1094.068244 552.009851 
L 1097.403736 518.043176 
L 1100.739228 585.976525 
L 1104.07472 565.330115 
L 1107.410212 518.709189 
L 1110.745704 524.703308 
L 1114.081196 576.65234 
L 1117.416687 541.353639 
L 1120.752179 530.031414 
L 1124.087671 536.025533 
L 1127.423163 575.986327 
L 1130.758655 510.71703 
L 1134.094147 571.990247 
L 1137.429639 585.310512 
L 1140.765131 531.36344 
L 1144.100623 528.033374 
L 1147.436115 531.36344 
L 1150.771606 504.722911 
L 1154.107098 547.347758 
L 1157.44259 581.980446 
L 1160.778082 499.394805 
L 1164.113574 586.642539 
L 1167.449066 597.964764 
L 1170.784558 575.320314 
L 1174.12005 482.078461 
L 1177.455542 466.094144 
L 1180.791034 414.145111 
L 1184.126526 466.760157 
L 1187.462017 491.402646 
L 1190.797509 583.978486 
L 1194.133001 577.984367 
L 1197.468493 579.982406 
L 1200.803985 344.879735 
L 1204.139477 371.520265 
L 1207.474969 472.754276 
L 1210.810461 556.00593 
L 1214.145953 542.019652 
L 1217.481445 468.092183 
L 1220.816936 591.970644 
L 1224.152428 540.021612 
L 1227.48792 542.685665 
L 1230.823412 549.345798 
L 1234.158904 589.306592 
L 1237.494396 562.000049 
L 1240.829888 490.736633 
L 1244.16538 457.435972 
L 1247.500872 418.141191 
L 1250.836364 579.982406 
L 1254.171856 562.666062 
L 1257.507347 509.385004 
L 1260.842839 558.00397 
L 1264.178331 599.29679 
L 1267.513823 581.980446 
L 1270.849315 571.990247 
L 1274.184807 463.430091 
L 1277.520299 335.55555 
L 1280.855791 362.196079 
L 1284.191283 563.998089 
L 1287.526775 496.730752 
L 1290.862267 424.13531 
L 1294.197758 476.084342 
L 1297.53325 384.174516 
L 1300.868742 600.628816 
L 1304.204234 501.392845 
L 1307.539726 409.483019 
L 1310.875218 599.962803 
L 1314.21071 497.396765 
L 1317.546202 488.07258 
L 1320.881694 601.29483 
L 1324.217186 597.29875 
L 1327.552677 538.023573 
L 1330.888169 556.00593 
L 1334.223661 438.787601 
L 1337.559153 552.675864 
L 1340.894645 466.760157 
L 1344.230137 599.29679 
L 1347.565629 597.29875 
L 1350.901121 593.968684 
L 1354.236613 529.365401 
L 1360.907597 452.107866 
L 1364.243088 351.539868 
L 1367.57858 454.105905 
L 1370.914072 596.632737 
L 1374.249564 562.000049 
L 1377.585056 601.960843 
L 1380.920548 602.626856 
L 1384.25604 575.986327 
L 1387.591532 542.019652 
L 1390.927024 587.974565 
L 1394.262516 499.394805 
L 1397.598007 451.441852 
L 1400.933499 495.398726 
L 1404.268991 551.343837 
L 1407.604483 550.677824 
L 1410.939975 386.838569 
L 1414.275467 313.577113 
L 1417.610959 598.630777 
L 1420.946451 564.664102 
L 1424.281943 600.628816 
L 1427.617435 566.662142 
L 1430.952927 573.988287 
L 1434.288418 559.335996 
L 1437.62391 571.990247 
L 1440.959402 426.13335 
L 1444.294894 400.158834 
L 1447.630386 598.630777 
L 1450.965878 500.060818 
L 1454.30137 505.388924 
L 1457.636862 581.980446 
L 1460.972354 428.797403 
L 1464.307846 376.84837 
L 1467.643337 442.117667 
L 1470.978829 428.797403 
L 1474.314321 597.964764 
L 1477.649813 597.964764 
L 1480.985305 586.642539 
L 1484.320797 567.994168 
M 1490.991781 550.677824 
" clip-path="url(#p35952cda14)" style="fill: none; stroke: #ffa500; stroke-width: 1.5; stroke-linecap: round"/>
            </g>
            <g id="line2d_21">
                <path d="M 276.872727 590.638618
L 283.543711 430.795442 
L 286.879203 550.011811 
L 290.214695 478.748395 
L 293.550187 521.373242 
L 296.885679 462.098064 
L 300.221171 597.29875 
L 303.556663 562.666062 
L 306.892154 551.343837 
L 310.227646 528.033374 
L 313.563138 593.302671 
L 316.89863 568.660181 
L 320.234122 440.119628 
L 323.569614 524.703308 
L 326.905106 227.661407 
L 330.240598 372.852291 
L 333.57609 581.314433 
L 336.911582 493.400686 
L 340.247073 595.966724 
L 343.582565 599.29679 
L 346.918057 522.039255 
L 350.253549 390.834648 
L 353.589041 406.152953 
L 356.924533 570.658221 
L 360.260025 578.65038 
L 363.595517 525.369321 
L 366.931009 599.29679 
L 370.266501 556.671943 
L 373.601993 454.105905 
L 376.937484 515.379123 
L 380.272976 484.742514 
L 383.608468 512.71507 
L 386.94396 599.962803 
L 390.279452 604.624896 
L 393.614944 537.357559 
L 396.950436 514.047096 
L 400.285928 546.015731 
L 403.62142 536.025533 
L 406.956912 600.628816 
L 410.292403 599.29679 
L 413.627895 562.666062 
L 416.963387 460.100025 
L 420.298879 428.131389 
L 423.634371 431.461456 
L 426.969863 221.001274 
L 430.305355 352.205881 
L 433.640847 496.730752 
L 436.976339 576.65234 
L 440.311831 528.033374 
L 443.647323 505.388924 
L 446.982814 340.217643 
L 450.318306 350.873854 
L 453.653798 415.477138 
L 456.98929 374.850331 
L 460.324782 359.532026 
L 463.660274 246.309777 
L 466.995766 585.976525 
L 470.331258 578.65038 
L 473.66675 494.732713 
L 477.002242 523.371282 
L 480.337733 402.822887 
L 483.673225 429.463416 
L 487.008717 597.29875 
L 490.344209 598.630777 
L 493.679701 562.000049 
L 497.015193 532.695467 
L 500.350685 517.377162 
L 503.686177 569.992208 
L 507.021669 457.435972 
L 510.357161 599.962803 
L 513.692653 582.646459 
L 517.028144 590.638618 
L 520.363636 558.669983 
L 523.699128 470.090223 
L 527.03462 507.386964 
L 530.370112 591.304631 
L 533.705604 583.978486 
L 537.041096 599.962803 
L 540.376588 602.626856 
L 543.71208 559.335996 
L 547.047572 541.353639 
L 550.383064 442.117667 
L 553.718555 413.479098 
L 557.054047 480.080421 
L 560.389539 296.926783 
L 563.725031 510.051017 
L 567.060523 458.767998 
L 570.396015 565.996128 
L 573.731507 563.998089 
L 577.066999 500.726832 
L 580.402491 543.351679 
L 583.737983 563.998089 
L 587.073474 579.982406 
L 590.408966 583.978486 
L 593.744458 568.660181 
L 597.07995 570.658221 
L 600.415442 496.064739 
L 603.750934 516.045136 
L 607.086426 496.730752 
L 610.421918 572.656261 
L 613.75741 554.673903 
L 617.092902 526.701348 
L 620.428394 437.455575 
L 623.763885 569.326195 
L 627.099377 580.64842 
L 630.434869 522.039255 
L 633.770361 505.388924 
L 637.105853 551.343837 
L 640.441345 543.351679 
L 643.776837 556.00593 
L 647.112329 558.00397 
L 650.447821 558.00397 
L 653.783313 552.009851 
L 657.118804 514.047096 
L 660.454296 588.640578 
L 663.789788 582.646459 
L 667.12528 574.6543 
L 670.460772 552.675864 
L 673.796264 538.023573 
L 677.131756 544.017692 
L 680.467248 575.320314 
L 683.80274 578.65038 
L 687.138232 571.990247 
L 690.473724 562.000049 
L 693.809215 567.328155 
L 697.144707 524.037295 
L 700.480199 550.677824 
L 703.815691 550.677824 
L 707.151183 569.992208 
L 710.486675 578.65038 
L 713.822167 579.982406 
L 717.157659 578.65038 
L 720.493151 585.310512 
L 723.828643 586.642539 
L 727.164134 471.422249 
L 730.499626 557.337956 
L 733.835118 583.978486 
L 737.17061 540.021612 
L 740.506102 490.736633 
L 743.841594 536.025533 
L 747.177086 509.385004 
L 750.512578 558.00397 
L 753.84807 537.357559 
L 757.183562 543.351679 
L 760.519054 596.632737 
L 763.854545 589.306592 
L 767.190037 598.630777 
L 770.525529 577.318353 
L 773.861021 554.00789 
L 777.196513 558.669983 
L 780.532005 551.343837 
L 783.867497 569.992208 
L 787.202989 568.660181 
L 790.538481 575.320314 
M 810.551432 571.990247 
L 813.886924 538.023573 
L 817.222416 584.644499 
L 820.557908 563.998089 
L 823.8934 581.980446 
L 827.228892 521.373242 
L 830.564384 513.381083 
L 833.899875 489.404607 
L 837.235367 556.671943 
L 840.570859 511.383043 
L 843.906351 554.673903 
L 847.241843 557.337956 
L 850.577335 595.966724 
L 853.912827 582.646459 
L 857.248319 577.984367 
L 860.583811 571.990247 
L 863.919303 500.726832 
L 867.254795 565.330115 
L 870.590286 587.974565 
L 873.925778 586.642539 
L 877.26127 560.002009 
L 880.596762 567.328155 
L 883.932254 588.640578 
L 887.267746 533.36148 
L 890.603238 410.149032 
L 893.93873 494.732713 
L 897.274222 485.408527 
L 900.609714 514.047096 
L 903.945205 476.084342 
L 907.280697 569.992208 
L 910.616189 583.978486 
L 913.951681 574.6543 
L 917.287173 575.986327 
L 920.622665 582.646459 
L 923.958157 573.322274 
L 927.293649 586.642539 
L 930.629141 544.683705 
L 933.964633 563.998089 
L 937.300125 460.100025 
L 940.635616 548.679784 
L 943.971108 579.316393 
L 947.3066 569.326195 
L 950.642092 602.626856 
L 953.977584 595.966724 
L 957.313076 575.986327 
L 960.648568 516.045136 
L 963.98406 558.669983 
L 967.319552 566.662142 
L 970.655044 544.683705 
L 973.990535 542.685665 
L 977.326027 554.673903 
L 980.661519 472.754276 
L 983.997011 476.084342 
L 987.332503 554.673903 
L 990.667995 514.71311 
L 994.003487 557.337956 
L 997.338979 602.626856 
L 1000.674471 585.310512 
L 1004.009963 523.371282 
L 1007.345455 574.6543 
L 1010.680946 558.669983 
L 1014.016438 595.300711 
L 1017.35193 549.345798 
L 1020.687422 573.322274 
L 1024.022914 591.304631 
L 1027.358406 587.308552 
L 1030.693898 585.310512 
L 1034.02939 569.992208 
L 1037.364882 492.06866 
L 1040.700374 544.683705 
L 1044.035866 557.337956 
L 1047.371357 558.00397 
M 1054.042341 591.970644 
L 1057.377833 530.031414 
L 1060.713325 589.306592 
L 1064.048817 589.972605 
L 1067.384309 589.306592 
L 1074.055293 547.347758 
L 1077.390785 554.00789 
L 1080.726276 535.35952 
L 1084.061768 540.021612 
L 1087.39726 538.023573 
L 1090.732752 582.646459 
L 1094.068244 599.962803 
L 1097.403736 591.304631 
L 1100.739228 566.662142 
L 1104.07472 508.052977 
L 1107.410212 498.728792 
L 1110.745704 537.357559 
L 1114.081196 586.642539 
L 1117.416687 579.316393 
L 1120.752179 552.009851 
L 1124.087671 526.035334 
L 1127.423163 571.990247 
L 1130.758655 557.337956 
L 1134.094147 578.65038 
L 1137.429639 586.642539 
L 1140.765131 569.326195 
L 1144.100623 569.326195 
L 1147.436115 567.328155 
L 1154.107098 454.105905 
L 1157.44259 556.671943 
L 1160.778082 524.703308 
L 1164.113574 573.322274 
L 1167.449066 532.695467 
L 1170.784558 566.662142 
L 1174.12005 527.367361 
L 1177.455542 555.339917 
L 1180.791034 556.671943 
L 1184.126526 589.306592 
L 1187.462017 554.673903 
L 1190.797509 552.009851 
L 1194.133001 526.035334 
L 1197.468493 520.041215 
L 1200.803985 554.00789 
L 1204.139477 580.64842 
L 1207.474969 546.015731 
L 1210.810461 406.152953 
L 1214.145953 348.209802 
L 1217.481445 320.237246 
L 1220.816936 388.170595 
L 1224.152428 601.29483 
L 1227.48792 601.960843 
L 1230.823412 565.996128 
L 1234.158904 512.71507 
L 1237.494396 579.982406 
L 1240.829888 550.011811 
L 1244.16538 466.094144 
L 1247.500872 336.221563 
L 1250.836364 499.394805 
L 1254.171856 565.996128 
L 1257.507347 566.662142 
L 1260.842839 522.705268 
L 1264.178331 455.437932 
L 1267.513823 352.871894 
L 1270.849315 343.547709 
L 1274.184807 599.962803 
L 1277.520299 573.322274 
L 1280.855791 544.683705 
L 1284.191283 463.430091 
L 1287.526775 465.42813 
L 1290.862267 486.740554 
L 1294.197758 599.962803 
L 1297.53325 595.300711 
L 1300.868742 565.996128 
L 1304.204234 447.445773 
L 1307.539726 603.958883 
L 1310.875218 579.316393 
L 1314.21071 575.986327 
L 1317.546202 545.349718 
L 1320.881694 537.357559 
L 1324.217186 510.71703 
L 1327.552677 600.628816 
L 1330.888169 598.630777 
L 1334.223661 577.984367 
L 1337.559153 514.71311 
L 1340.894645 424.801323 
L 1344.230137 598.630777 
L 1347.565629 552.675864 
L 1350.901121 459.434011 
L 1354.236613 344.879735 
M 1360.907597 595.300711 
L 1364.243088 535.35952 
L 1367.57858 446.77976 
L 1370.914072 546.681745 
L 1374.249564 391.500662 
L 1377.585056 293.596716 
L 1380.920548 583.978486 
L 1384.25604 460.766038 
L 1387.591532 445.447733 
L 1390.927024 574.6543 
L 1394.262516 596.632737 
L 1397.598007 524.703308 
L 1400.933499 599.29679 
L 1404.268991 602.626856 
L 1407.604483 513.381083 
L 1410.939975 538.689586 
L 1414.275467 594.634697 
L 1417.610959 486.740554 
L 1420.946451 399.49282 
L 1424.281943 594.634697 
L 1427.617435 601.29483 
L 1430.952927 598.630777 
L 1434.288418 522.705268 
L 1437.62391 495.398726 
L 1440.959402 602.626856 
L 1444.294894 600.628816 
L 1447.630386 486.740554 
L 1450.965878 424.13531 
L 1454.30137 600.628816 
L 1457.636862 603.958883 
L 1460.972354 571.324234 
L 1464.307846 512.049057 
L 1467.643337 597.964764 
L 1470.978829 593.302671 
L 1474.314321 544.683705 
L 1477.649813 498.062779 
L 1480.985305 350.207841 
L 1484.320797 365.526146 
L 1487.656289 480.746435 
L 1490.991781 599.962803 
L 1490.991781 599.962803 
" clip-path="url(#p35952cda14)" style="fill: none; stroke: #ffc0cb; stroke-width: 1.5; stroke-linecap: round"/>
            </g>
            <g id="patch_3">
                <path d="M 216 630
L 216 86.4 
" style="fill: none; stroke: #cccccc; stroke-width: 0.8; stroke-linejoin: miter; stroke-linecap: square"/>
            </g>
            <g id="patch_4">
                <path d="M 1555.2 630
L 1555.2 86.4 
" style="fill: none; stroke: #cccccc; stroke-width: 0.8; stroke-linejoin: miter; stroke-linecap: square"/>
            </g>
            <g id="patch_5">
                <path d="M 216 630
L 1555.2 630 
" style="fill: none; stroke: #cccccc; stroke-width: 0.8; stroke-linejoin: miter; stroke-linecap: square"/>
            </g>
            <g id="patch_6">
                <path d="M 216 86.4
L 1555.2 86.4 
" style="fill: none; stroke: #cccccc; stroke-width: 0.8; stroke-linejoin: miter; stroke-linecap: square"/>
            </g>
            <g id="legend_1">
                <g id="patch_7">
                    <path d="M 1493.95625 165.126562
L 1548.2 165.126562 
Q 1550.2 165.126562 1550.2 163.126562 
L 1550.2 93.4 
Q 1550.2 91.4 1548.2 91.4 
L 1493.95625 91.4 
Q 1491.95625 91.4 1491.95625 93.4 
L 1491.95625 163.126562 
Q 1491.95625 165.126562 1493.95625 165.126562 
z
" style="fill: #ffffff; opacity: 0.8; stroke: #cccccc; stroke-linejoin: miter"/>
                </g>
                <g id="line2d_22">
                    <path d="M 1495.95625 99.057812
L 1505.95625 99.057812 
L 1515.95625 99.057812 
" style="fill: none; stroke: #ff0000; stroke-width: 1.5; stroke-linecap: round"/>
                </g>
                <g id="text_17">
                    <!-- 2010 -->
                    <g style="fill: #262626" transform="translate(1523.95625 102.557812)scale(0.1 -0.1)">
                        <use xlink:href="#ArialMT-32"/>
                        <use xlink:href="#ArialMT-30" x="55.615234"/>
                        <use xlink:href="#ArialMT-31" x="111.230469"/>
                        <use xlink:href="#ArialMT-30" x="166.845703"/>
                    </g>
                </g>
                <g id="line2d_23">
                    <path d="M 1495.95625 113.203125
L 1505.95625 113.203125 
L 1515.95625 113.203125 
" style="fill: none; stroke: #0000ff; stroke-width: 1.5; stroke-linecap: round"/>
                </g>
                <g id="text_18">
                    <!-- 2011 -->
                    <g style="fill: #262626" transform="translate(1523.95625 116.703125)scale(0.1 -0.1)">
                        <use xlink:href="#ArialMT-32"/>
                        <use xlink:href="#ArialMT-30" x="55.615234"/>
                        <use xlink:href="#ArialMT-31" x="111.230469"/>
                        <use xlink:href="#ArialMT-31" x="159.470703"/>
                    </g>
                </g>
                <g id="line2d_24">
                    <path d="M 1495.95625 127.348437
L 1505.95625 127.348437 
L 1515.95625 127.348437 
" style="fill: none; stroke: #008000; stroke-width: 1.5; stroke-linecap: round"/>
                </g>
                <g id="text_19">
                    <!-- 2012 -->
                    <g style="fill: #262626" transform="translate(1523.95625 130.848437)scale(0.1 -0.1)">
                        <use xlink:href="#ArialMT-32"/>
                        <use xlink:href="#ArialMT-30" x="55.615234"/>
                        <use xlink:href="#ArialMT-31" x="111.230469"/>
                        <use xlink:href="#ArialMT-32" x="166.845703"/>
                    </g>
                </g>
                <g id="line2d_25">
                    <path d="M 1495.95625 141.49375
L 1505.95625 141.49375 
L 1515.95625 141.49375 
" style="fill: none; stroke: #ffa500; stroke-width: 1.5; stroke-linecap: round"/>
                </g>
                <g id="text_20">
                    <!-- 2013 -->
                    <g style="fill: #262626" transform="translate(1523.95625 144.99375)scale(0.1 -0.1)">
                        <use xlink:href="#ArialMT-32"/>
                        <use xlink:href="#ArialMT-30" x="55.615234"/>
                        <use xlink:href="#ArialMT-31" x="111.230469"/>
                        <use xlink:href="#ArialMT-33" x="166.845703"/>
                    </g>
                </g>
                <g id="line2d_26">
                    <path d="M 1495.95625 155.639062
L 1505.95625 155.639062 
L 1515.95625 155.639062 
" style="fill: none; stroke: #ffc0cb; stroke-width: 1.5; stroke-linecap: round"/>
                </g>
                <g id="text_21">
                    <!-- 2014 -->
                    <g style="fill: #262626" transform="translate(1523.95625 159.139062)scale(0.1 -0.1)">
                        <use xlink:href="#ArialMT-32"/>
                        <use xlink:href="#ArialMT-30" x="55.615234"/>
                        <use xlink:href="#ArialMT-31" x="111.230469"/>
                        <use xlink:href="#ArialMT-34" x="166.845703"/>
                    </g>
                </g>
            </g>
        </g>
    </g>
    <defs>
        <clipPath id="p35952cda14">
            <rect x="216" y="86.4" width="1339.2" height="543.6"/>
        </clipPath>
    </defs>
</svg>
