<?xml version="1.0" encoding="utf-8" standalone="no"?>
<!DOCTYPE svg PUBLIC "-//W3C//DTD SVG 1.1//EN"
        "http://www.w3.org/Graphics/SVG/1.1/DTD/svg11.dtd">
<svg xmlns:xlink="http://www.w3.org/1999/xlink" width="432pt" height="288pt" viewBox="0 0 432 288"
     xmlns="http://www.w3.org/2000/svg" version="1.1">
    <metadata>
        <rdf:RDF xmlns:dc="http://purl.org/dc/elements/1.1/" xmlns:cc="http://creativecommons.org/ns#"
                 xmlns:rdf="http://www.w3.org/1999/02/22-rdf-syntax-ns#">
            <cc:Work>
                <dc:type rdf:resource="http://purl.org/dc/dcmitype/StillImage"/>
                <dc:date>2022-05-30T10:48:47.545517</dc:date>
                <dc:format>image/svg+xml</dc:format>
                <dc:creator>
                    <cc:Agent>
                        <dc:title>Matplotlib v3.5.1, https://matplotlib.org/</dc:title>
                    </cc:Agent>
                </dc:creator>
            </cc:Work>
        </rdf:RDF>
    </metadata>
    <defs>
        <style type="text/css">*{stroke-linejoin: round; stroke-linecap: butt}</style>
    </defs>
    <g id="figure_1">
        <g id="patch_1">
            <path d="M 0 288
L 432 288 
L 432 0 
L 0 0 
z
" style="fill: #ffffff"/>
        </g>
        <g id="axes_1">
            <g id="patch_2">
                <path d="M 54 252
L 388.8 252 
L 388.8 34.56 
L 54 34.56 
z
" style="fill: #ffffff"/>
            </g>
            <g id="matplotlib.axis_1">
                <g id="xtick_1">
                    <g id="line2d_1">
                        <path d="M 69.218182 252
L 69.218182 34.56 
" clip-path="url(#pd725c952ab)" style="fill: none; stroke: #cccccc; stroke-width: 0.8; stroke-linecap: round"/>
                    </g>
                    <g id="text_1">
                        <!-- 1 -->
                        <g style="fill: #262626" transform="translate(66.437713 266.157812)scale(0.1 -0.1)">
                            <defs>
                                <path id="ArialMT-31" d="M 2384 0
L 1822 0 
L 1822 3584 
Q 1619 3391 1289 3197 
Q 959 3003 697 2906 
L 697 3450 
Q 1169 3672 1522 3987 
Q 1875 4303 2022 4600 
L 2384 4600 
L 2384 0 
z
" transform="scale(0.015625)"/>
                            </defs>
                            <use xlink:href="#ArialMT-31"/>
                        </g>
                    </g>
                </g>
                <g id="xtick_2">
                    <g id="line2d_2">
                        <path d="M 130.090909 252
L 130.090909 34.56 
" clip-path="url(#pd725c952ab)" style="fill: none; stroke: #cccccc; stroke-width: 0.8; stroke-linecap: round"/>
                    </g>
                    <g id="text_2">
                        <!-- 2 -->
                        <g style="fill: #262626" transform="translate(127.31044 266.157812)scale(0.1 -0.1)">
                            <defs>
                                <path id="ArialMT-32" d="M 3222 541
L 3222 0 
L 194 0 
Q 188 203 259 391 
Q 375 700 629 1000 
Q 884 1300 1366 1694 
Q 2113 2306 2375 2664 
Q 2638 3022 2638 3341 
Q 2638 3675 2398 3904 
Q 2159 4134 1775 4134 
Q 1369 4134 1125 3890 
Q 881 3647 878 3216 
L 300 3275 
Q 359 3922 746 4261 
Q 1134 4600 1788 4600 
Q 2447 4600 2831 4234 
Q 3216 3869 3216 3328 
Q 3216 3053 3103 2787 
Q 2991 2522 2730 2228 
Q 2469 1934 1863 1422 
Q 1356 997 1212 845 
Q 1069 694 975 541 
L 3222 541 
z
" transform="scale(0.015625)"/>
                            </defs>
                            <use xlink:href="#ArialMT-32"/>
                        </g>
                    </g>
                </g>
                <g id="xtick_3">
                    <g id="line2d_3">
                        <path d="M 190.963636 252
L 190.963636 34.56 
" clip-path="url(#pd725c952ab)" style="fill: none; stroke: #cccccc; stroke-width: 0.8; stroke-linecap: round"/>
                    </g>
                    <g id="text_3">
                        <!-- 3 -->
                        <g style="fill: #262626" transform="translate(188.183168 266.157812)scale(0.1 -0.1)">
                            <defs>
                                <path id="ArialMT-33" d="M 269 1209
L 831 1284 
Q 928 806 1161 595 
Q 1394 384 1728 384 
Q 2125 384 2398 659 
Q 2672 934 2672 1341 
Q 2672 1728 2419 1979 
Q 2166 2231 1775 2231 
Q 1616 2231 1378 2169 
L 1441 2663 
Q 1497 2656 1531 2656 
Q 1891 2656 2178 2843 
Q 2466 3031 2466 3422 
Q 2466 3731 2256 3934 
Q 2047 4138 1716 4138 
Q 1388 4138 1169 3931 
Q 950 3725 888 3313 
L 325 3413 
Q 428 3978 793 4289 
Q 1159 4600 1703 4600 
Q 2078 4600 2393 4439 
Q 2709 4278 2876 4000 
Q 3044 3722 3044 3409 
Q 3044 3113 2884 2869 
Q 2725 2625 2413 2481 
Q 2819 2388 3044 2092 
Q 3269 1797 3269 1353 
Q 3269 753 2831 336 
Q 2394 -81 1725 -81 
Q 1122 -81 723 278 
Q 325 638 269 1209 
z
" transform="scale(0.015625)"/>
                            </defs>
                            <use xlink:href="#ArialMT-33"/>
                        </g>
                    </g>
                </g>
                <g id="xtick_4">
                    <g id="line2d_4">
                        <path d="M 251.836364 252
L 251.836364 34.56 
" clip-path="url(#pd725c952ab)" style="fill: none; stroke: #cccccc; stroke-width: 0.8; stroke-linecap: round"/>
                    </g>
                    <g id="text_4">
                        <!-- 4 -->
                        <g style="fill: #262626" transform="translate(249.055895 266.157812)scale(0.1 -0.1)">
                            <defs>
                                <path id="ArialMT-34" d="M 2069 0
L 2069 1097 
L 81 1097 
L 81 1613 
L 2172 4581 
L 2631 4581 
L 2631 1613 
L 3250 1613 
L 3250 1097 
L 2631 1097 
L 2631 0 
L 2069 0 
z
M 2069 1613 
L 2069 3678 
L 634 1613 
L 2069 1613 
z
" transform="scale(0.015625)"/>
                            </defs>
                            <use xlink:href="#ArialMT-34"/>
                        </g>
                    </g>
                </g>
                <g id="xtick_5">
                    <g id="line2d_5">
                        <path d="M 312.709091 252
L 312.709091 34.56 
" clip-path="url(#pd725c952ab)" style="fill: none; stroke: #cccccc; stroke-width: 0.8; stroke-linecap: round"/>
                    </g>
                    <g id="text_5">
                        <!-- 5 -->
                        <g style="fill: #262626" transform="translate(309.928622 266.157812)scale(0.1 -0.1)">
                            <defs>
                                <path id="ArialMT-35" d="M 266 1200
L 856 1250 
Q 922 819 1161 601 
Q 1400 384 1738 384 
Q 2144 384 2425 690 
Q 2706 997 2706 1503 
Q 2706 1984 2436 2262 
Q 2166 2541 1728 2541 
Q 1456 2541 1237 2417 
Q 1019 2294 894 2097 
L 366 2166 
L 809 4519 
L 3088 4519 
L 3088 3981 
L 1259 3981 
L 1013 2750 
Q 1425 3038 1878 3038 
Q 2478 3038 2890 2622 
Q 3303 2206 3303 1553 
Q 3303 931 2941 478 
Q 2500 -78 1738 -78 
Q 1113 -78 717 272 
Q 322 622 266 1200 
z
" transform="scale(0.015625)"/>
                            </defs>
                            <use xlink:href="#ArialMT-35"/>
                        </g>
                    </g>
                </g>
                <g id="xtick_6">
                    <g id="line2d_6">
                        <path d="M 373.581818 252
L 373.581818 34.56 
" clip-path="url(#pd725c952ab)" style="fill: none; stroke: #cccccc; stroke-width: 0.8; stroke-linecap: round"/>
                    </g>
                    <g id="text_6">
                        <!-- 6 -->
                        <g style="fill: #262626" transform="translate(370.801349 266.157812)scale(0.1 -0.1)">
                            <defs>
                                <path id="ArialMT-36" d="M 3184 3459
L 2625 3416 
Q 2550 3747 2413 3897 
Q 2184 4138 1850 4138 
Q 1581 4138 1378 3988 
Q 1113 3794 959 3422 
Q 806 3050 800 2363 
Q 1003 2672 1297 2822 
Q 1591 2972 1913 2972 
Q 2475 2972 2870 2558 
Q 3266 2144 3266 1488 
Q 3266 1056 3080 686 
Q 2894 316 2569 119 
Q 2244 -78 1831 -78 
Q 1128 -78 684 439 
Q 241 956 241 2144 
Q 241 3472 731 4075 
Q 1159 4600 1884 4600 
Q 2425 4600 2770 4297 
Q 3116 3994 3184 3459 
z
M 888 1484 
Q 888 1194 1011 928 
Q 1134 663 1356 523 
Q 1578 384 1822 384 
Q 2178 384 2434 671 
Q 2691 959 2691 1453 
Q 2691 1928 2437 2201 
Q 2184 2475 1800 2475 
Q 1419 2475 1153 2201 
Q 888 1928 888 1484 
z
" transform="scale(0.015625)"/>
                            </defs>
                            <use xlink:href="#ArialMT-36"/>
                        </g>
                    </g>
                </g>
            </g>
            <g id="matplotlib.axis_2">
                <g id="ytick_1">
                    <g id="line2d_7">
                        <path d="M 54 252
L 388.8 252 
" clip-path="url(#pd725c952ab)" style="fill: none; stroke: #cccccc; stroke-width: 0.8; stroke-linecap: round"/>
                    </g>
                    <g id="text_7">
                        <!-- 0 -->
                        <g style="fill: #262626" transform="translate(41.439062 255.578906)scale(0.1 -0.1)">
                            <defs>
                                <path id="ArialMT-30" d="M 266 2259
Q 266 3072 433 3567 
Q 600 4063 929 4331 
Q 1259 4600 1759 4600 
Q 2128 4600 2406 4451 
Q 2684 4303 2865 4023 
Q 3047 3744 3150 3342 
Q 3253 2941 3253 2259 
Q 3253 1453 3087 958 
Q 2922 463 2592 192 
Q 2263 -78 1759 -78 
Q 1097 -78 719 397 
Q 266 969 266 2259 
z
M 844 2259 
Q 844 1131 1108 757 
Q 1372 384 1759 384 
Q 2147 384 2411 759 
Q 2675 1134 2675 2259 
Q 2675 3391 2411 3762 
Q 2147 4134 1753 4134 
Q 1366 4134 1134 3806 
Q 844 3388 844 2259 
z
" transform="scale(0.015625)"/>
                            </defs>
                            <use xlink:href="#ArialMT-30"/>
                        </g>
                    </g>
                </g>
                <g id="ytick_2">
                    <g id="line2d_8">
                        <path d="M 54 221.712798
L 388.8 221.712798 
" clip-path="url(#pd725c952ab)" style="fill: none; stroke: #cccccc; stroke-width: 0.8; stroke-linecap: round"/>
                    </g>
                    <g id="text_8">
                        <!-- 5000 -->
                        <g style="fill: #262626" transform="translate(24.75625 225.291704)scale(0.1 -0.1)">
                            <use xlink:href="#ArialMT-35"/>
                            <use xlink:href="#ArialMT-30" x="55.615234"/>
                            <use xlink:href="#ArialMT-30" x="111.230469"/>
                            <use xlink:href="#ArialMT-30" x="166.845703"/>
                        </g>
                    </g>
                </g>
                <g id="ytick_3">
                    <g id="line2d_9">
                        <path d="M 54 191.425596
L 388.8 191.425596 
" clip-path="url(#pd725c952ab)" style="fill: none; stroke: #cccccc; stroke-width: 0.8; stroke-linecap: round"/>
                    </g>
                    <g id="text_9">
                        <!-- 10000 -->
                        <g style="fill: #262626" transform="translate(19.195312 195.004502)scale(0.1 -0.1)">
                            <use xlink:href="#ArialMT-31"/>
                            <use xlink:href="#ArialMT-30" x="55.615234"/>
                            <use xlink:href="#ArialMT-30" x="111.230469"/>
                            <use xlink:href="#ArialMT-30" x="166.845703"/>
                            <use xlink:href="#ArialMT-30" x="222.460938"/>
                        </g>
                    </g>
                </g>
                <g id="ytick_4">
                    <g id="line2d_10">
                        <path d="M 54 161.138394
L 388.8 161.138394 
" clip-path="url(#pd725c952ab)" style="fill: none; stroke: #cccccc; stroke-width: 0.8; stroke-linecap: round"/>
                    </g>
                    <g id="text_10">
                        <!-- 15000 -->
                        <g style="fill: #262626" transform="translate(19.195312 164.717301)scale(0.1 -0.1)">
                            <use xlink:href="#ArialMT-31"/>
                            <use xlink:href="#ArialMT-35" x="55.615234"/>
                            <use xlink:href="#ArialMT-30" x="111.230469"/>
                            <use xlink:href="#ArialMT-30" x="166.845703"/>
                            <use xlink:href="#ArialMT-30" x="222.460938"/>
                        </g>
                    </g>
                </g>
                <g id="ytick_5">
                    <g id="line2d_11">
                        <path d="M 54 130.851192
L 388.8 130.851192 
" clip-path="url(#pd725c952ab)" style="fill: none; stroke: #cccccc; stroke-width: 0.8; stroke-linecap: round"/>
                    </g>
                    <g id="text_11">
                        <!-- 20000 -->
                        <g style="fill: #262626" transform="translate(19.195312 134.430099)scale(0.1 -0.1)">
                            <use xlink:href="#ArialMT-32"/>
                            <use xlink:href="#ArialMT-30" x="55.615234"/>
                            <use xlink:href="#ArialMT-30" x="111.230469"/>
                            <use xlink:href="#ArialMT-30" x="166.845703"/>
                            <use xlink:href="#ArialMT-30" x="222.460938"/>
                        </g>
                    </g>
                </g>
                <g id="ytick_6">
                    <g id="line2d_12">
                        <path d="M 54 100.56399
L 388.8 100.56399 
" clip-path="url(#pd725c952ab)" style="fill: none; stroke: #cccccc; stroke-width: 0.8; stroke-linecap: round"/>
                    </g>
                    <g id="text_12">
                        <!-- 25000 -->
                        <g style="fill: #262626" transform="translate(19.195312 104.142897)scale(0.1 -0.1)">
                            <use xlink:href="#ArialMT-32"/>
                            <use xlink:href="#ArialMT-35" x="55.615234"/>
                            <use xlink:href="#ArialMT-30" x="111.230469"/>
                            <use xlink:href="#ArialMT-30" x="166.845703"/>
                            <use xlink:href="#ArialMT-30" x="222.460938"/>
                        </g>
                    </g>
                </g>
                <g id="ytick_7">
                    <g id="line2d_13">
                        <path d="M 54 70.276789
L 388.8 70.276789 
" clip-path="url(#pd725c952ab)" style="fill: none; stroke: #cccccc; stroke-width: 0.8; stroke-linecap: round"/>
                    </g>
                    <g id="text_13">
                        <!-- 30000 -->
                        <g style="fill: #262626" transform="translate(19.195312 73.855695)scale(0.1 -0.1)">
                            <use xlink:href="#ArialMT-33"/>
                            <use xlink:href="#ArialMT-30" x="55.615234"/>
                            <use xlink:href="#ArialMT-30" x="111.230469"/>
                            <use xlink:href="#ArialMT-30" x="166.845703"/>
                            <use xlink:href="#ArialMT-30" x="222.460938"/>
                        </g>
                    </g>
                </g>
                <g id="ytick_8">
                    <g id="line2d_14">
                        <path d="M 54 39.989587
L 388.8 39.989587 
" clip-path="url(#pd725c952ab)" style="fill: none; stroke: #cccccc; stroke-width: 0.8; stroke-linecap: round"/>
                    </g>
                    <g id="text_14">
                        <!-- 35000 -->
                        <g style="fill: #262626" transform="translate(19.195312 43.568493)scale(0.1 -0.1)">
                            <use xlink:href="#ArialMT-33"/>
                            <use xlink:href="#ArialMT-35" x="55.615234"/>
                            <use xlink:href="#ArialMT-30" x="111.230469"/>
                            <use xlink:href="#ArialMT-30" x="166.845703"/>
                            <use xlink:href="#ArialMT-30" x="222.460938"/>
                        </g>
                    </g>
                </g>
            </g>
            <g id="patch_3">
                <path d="M 69.218182 252
L 99.654545 252 
L 99.654545 44.914286 
L 69.218182 44.914286 
z
" clip-path="url(#pd725c952ab)" style="fill: #1f77b4; stroke: #ffffff; stroke-linejoin: miter"/>
            </g>
            <g id="patch_4">
                <path d="M 99.654545 252
L 130.090909 252 
L 130.090909 252 
L 99.654545 252 
z
" clip-path="url(#pd725c952ab)" style="fill: #1f77b4; stroke: #ffffff; stroke-linejoin: miter"/>
            </g>
            <g id="patch_5">
                <path d="M 130.090909 252
L 160.527273 252 
L 160.527273 213.807838 
L 130.090909 213.807838 
z
" clip-path="url(#pd725c952ab)" style="fill: #1f77b4; stroke: #ffffff; stroke-linejoin: miter"/>
            </g>
            <g id="patch_6">
                <path d="M 160.527273 252
L 190.963636 252 
L 190.963636 252 
L 160.527273 252 
z
" clip-path="url(#pd725c952ab)" style="fill: #1f77b4; stroke: #ffffff; stroke-linejoin: miter"/>
            </g>
            <g id="patch_7">
                <path d="M 190.963636 252
L 221.4 252 
L 221.4 245.124805 
L 190.963636 245.124805 
z
" clip-path="url(#pd725c952ab)" style="fill: #1f77b4; stroke: #ffffff; stroke-linejoin: miter"/>
            </g>
            <g id="patch_8">
                <path d="M 221.4 252
L 251.836364 252 
L 251.836364 252 
L 221.4 252 
z
" clip-path="url(#pd725c952ab)" style="fill: #1f77b4; stroke: #ffffff; stroke-linejoin: miter"/>
            </g>
            <g id="patch_9">
                <path d="M 251.836364 252
L 282.272727 252 
L 282.272727 251.339739 
L 251.836364 251.339739 
z
" clip-path="url(#pd725c952ab)" style="fill: #1f77b4; stroke: #ffffff; stroke-linejoin: miter"/>
            </g>
            <g id="patch_10">
                <path d="M 282.272727 252
L 312.709091 252 
L 312.709091 252 
L 282.272727 252 
z
" clip-path="url(#pd725c952ab)" style="fill: #1f77b4; stroke: #ffffff; stroke-linejoin: miter"/>
            </g>
            <g id="patch_11">
                <path d="M 312.709091 252
L 343.145455 252 
L 343.145455 251.915196 
L 312.709091 251.915196 
z
" clip-path="url(#pd725c952ab)" style="fill: #1f77b4; stroke: #ffffff; stroke-linejoin: miter"/>
            </g>
            <g id="patch_12">
                <path d="M 343.145455 252
L 373.581818 252 
L 373.581818 251.957598 
L 343.145455 251.957598 
z
" clip-path="url(#pd725c952ab)" style="fill: #1f77b4; stroke: #ffffff; stroke-linejoin: miter"/>
            </g>
            <g id="patch_13">
                <path d="M 54 252
L 54 34.56 
" style="fill: none; stroke: #cccccc; stroke-width: 0.8; stroke-linejoin: miter; stroke-linecap: square"/>
            </g>
            <g id="patch_14">
                <path d="M 388.8 252
L 388.8 34.56 
" style="fill: none; stroke: #cccccc; stroke-width: 0.8; stroke-linejoin: miter; stroke-linecap: square"/>
            </g>
            <g id="patch_15">
                <path d="M 54 252
L 388.8 252 
" style="fill: none; stroke: #cccccc; stroke-width: 0.8; stroke-linejoin: miter; stroke-linecap: square"/>
            </g>
            <g id="patch_16">
                <path d="M 54 34.56
L 388.8 34.56 
" style="fill: none; stroke: #cccccc; stroke-width: 0.8; stroke-linejoin: miter; stroke-linecap: square"/>
            </g>
        </g>
    </g>
    <defs>
        <clipPath id="pd725c952ab">
            <rect x="54" y="34.56" width="334.8" height="217.44"/>
        </clipPath>
    </defs>
</svg>
